{"glyphs":{"0":{"ha":1328,"x_min":-50,"x_max":1176,"o":"m 1176 561 q 1128 324 1176 436 q 996 129 1079 213 q 801 -3 913 46 q 564 -51 689 -51 q 326 -3 438 -51 q 131 128 214 44 q -1 322 47 211 q -50 561 -50 433 q -1 799 -50 688 q 131 994 47 911 q 327 1126 215 1078 q 564 1175 439 1175 q 800 1126 689 1175 q 995 994 911 1078 q 1128 798 1079 910 q 1176 561 1176 686 m 1104 565 q 1061 776 1104 676 q 944 949 1018 875 q 770 1067 869 1024 q 560 1110 671 1110 q 348 1067 447 1110 q 174 949 249 1024 q 57 776 100 875 q 14 565 14 676 q 57 353 14 453 q 174 180 100 254 q 348 63 249 106 q 560 19 447 19 q 770 63 671 19 q 944 180 869 106 q 1061 353 1018 254 q 1104 565 1104 453 m 1036 565 q 999 380 1036 467 q 896 228 961 293 q 744 126 831 164 q 560 88 657 88 q 374 126 461 88 q 223 228 288 164 q 120 380 158 293 q 82 565 82 467 q 120 749 82 663 q 223 901 158 836 q 374 1004 288 967 q 560 1042 461 1042 q 744 1003 657 1042 q 895 901 831 965 q 998 749 960 836 q 1036 565 1036 663 z "},"1":{"ha":1336,"x_min":-69,"x_max":1185,"o":"m 1185 553 q 1135 312 1185 425 q 1001 113 1086 199 q 801 -24 915 26 q 558 -74 688 -74 q 315 -24 429 -74 q 115 110 200 25 q -20 310 29 196 q -69 553 -69 424 q -19 797 -69 682 q 116 997 31 911 q 316 1131 201 1082 q 558 1181 431 1181 q 800 1131 686 1181 q 999 995 914 1081 q 1135 796 1085 910 q 1185 553 1185 682 m 1111 557 q 1067 772 1111 671 q 947 949 1022 874 q 769 1069 871 1025 q 554 1114 668 1114 q 339 1070 440 1114 q 162 951 238 1026 q 42 774 86 875 q -3 557 -3 672 q 41 341 -3 442 q 161 164 85 240 q 338 44 238 88 q 554 0 439 0 q 771 44 669 0 q 948 165 872 89 q 1067 342 1024 240 q 1111 557 1111 443 m 1042 557 q 1003 368 1042 457 q 898 213 964 279 q 743 108 832 147 q 554 69 654 69 q 365 108 454 69 q 210 213 276 146 q 106 368 144 279 q 67 557 67 457 q 106 746 67 657 q 210 901 144 835 q 365 1006 276 968 q 554 1044 454 1044 q 743 1006 654 1044 q 898 901 832 967 q 1003 746 964 835 q 1042 557 1042 657 m 832 685 q 810 749 832 721 q 751 786 788 778 l 832 867 l 783 917 l 635 769 l 650 754 q 624 685 624 726 q 654 611 624 642 q 728 581 685 581 q 801 611 771 581 q 832 685 832 642 m 485 685 q 468 742 485 714 l 485 757 l 336 906 l 288 856 l 357 786 q 298 750 321 779 q 275 685 275 721 q 306 611 275 642 q 379 581 336 581 q 453 611 422 581 q 485 685 485 642 m 901 488 l 206 488 q 233 351 206 415 q 307 240 260 288 q 418 166 354 193 q 554 139 482 139 q 688 167 625 139 q 799 242 751 194 q 874 353 846 289 q 901 488 901 417 m 824 418 q 787 335 813 374 q 725 268 761 296 q 645 224 689 240 q 554 208 601 208 q 462 224 506 208 q 383 268 418 240 q 322 334 347 296 q 285 418 296 372 l 344 418 l 414 279 l 485 418 l 624 418 l 693 279 l 763 418 l 824 418 z "},"2":{"ha":1311,"x_min":-61,"x_max":1161,"o":"m 1161 550 q 1113 314 1161 425 q 981 119 1064 203 q 786 -12 897 36 q 550 -61 675 -61 q 314 -12 425 -61 q 119 119 203 36 q -12 314 36 203 q -61 550 -61 425 q -41 704 -61 629 q 16 847 -21 779 q 106 970 53 914 q 226 1068 160 1026 l 193 1101 l 433 1342 l 549 1226 l 661 1339 l 900 1099 l 872 1069 q 992 971 939 1028 q 1083 847 1046 914 q 1141 703 1121 779 q 1161 550 1161 628 m 550 1161 l 544 1165 l 540 1161 l 550 1161 m 1089 560 q 1067 710 1089 636 q 1006 847 1046 783 q 909 963 965 911 q 783 1049 853 1014 l 818 1083 l 674 1226 l 626 1179 l 736 1068 q 546 1103 646 1103 q 374 1075 461 1103 l 478 1179 l 431 1226 l 286 1083 l 317 1051 q 188 967 246 1018 q 88 851 129 915 q 25 713 47 786 q 3 560 3 639 q 22 419 3 488 q 76 289 40 350 q 161 176 111 228 q 275 89 211 125 l 275 83 l 283 83 q 546 17 406 17 q 757 60 658 17 q 930 177 856 103 q 1047 350 1004 251 q 1089 560 1089 449 m 1022 560 q 968 340 1022 443 q 818 169 914 236 l 818 383 q 954 661 954 494 l 872 661 q 845 542 872 597 q 774 448 818 488 q 669 385 729 408 q 546 363 610 363 q 422 386 481 363 q 318 450 363 410 q 247 544 274 490 q 221 661 221 599 l 139 661 q 275 383 139 494 l 275 169 q 125 340 179 236 q 71 560 71 443 q 108 743 71 657 q 210 894 146 829 q 362 997 275 958 q 546 1035 449 1035 q 730 997 643 1035 q 881 894 817 958 q 984 742 946 829 q 1022 560 1022 656 m 750 219 l 621 219 l 621 294 q 688 311 656 300 q 750 338 719 322 l 750 219 m 792 151 q 561 85 685 89 l 561 151 l 792 151 m 486 151 l 343 151 l 343 338 q 486 292 410 301 l 486 151 m 750 661 q 720 733 750 703 q 649 763 690 763 q 576 733 606 763 q 546 661 546 703 q 576 590 546 619 q 649 560 606 560 q 720 590 690 560 q 750 661 750 619 m 546 729 q 516 801 546 771 q 444 831 486 831 q 373 801 403 831 q 343 729 343 771 q 373 658 343 688 q 444 628 403 628 q 516 658 486 628 q 546 729 546 688 z "},"3":{"ha":1326,"x_min":-62,"x_max":1175,"o":"m 1175 556 q 1126 315 1175 428 q 992 118 1076 203 q 795 -15 908 33 q 556 -64 682 -64 q 315 -15 428 -64 q 119 118 203 33 q -14 315 35 203 q -62 556 -62 428 q -14 794 -62 682 q 119 991 35 907 q 316 1124 204 1075 q 556 1174 428 1174 q 794 1124 682 1174 q 992 991 907 1075 q 1126 794 1076 907 q 1175 556 1175 682 m 1103 558 q 1059 772 1103 671 q 940 947 1015 872 q 765 1066 865 1022 q 553 1110 665 1110 q 340 1067 440 1110 q 165 949 240 1024 q 46 773 90 874 q 1 558 1 672 q 45 346 1 446 q 164 171 89 246 q 340 52 239 96 q 553 8 440 8 q 765 52 665 8 q 940 171 865 96 q 1059 346 1015 246 q 1103 558 1103 446 m 1033 558 q 896 222 1033 361 q 867 351 894 290 q 792 458 839 413 q 683 531 744 504 q 553 558 621 558 q 422 532 483 558 q 313 460 360 506 q 238 353 265 414 q 208 222 210 292 q 71 558 71 361 q 109 746 71 658 q 213 899 147 833 q 367 1003 279 965 q 553 1040 454 1040 q 738 1002 650 1040 q 891 898 825 964 q 995 744 957 832 q 1033 558 1033 657 m 756 400 l 349 400 q 553 490 431 490 q 756 400 674 490 m 828 215 l 278 215 q 292 306 278 264 l 813 306 q 828 215 828 260 m 800 146 q 553 78 686 78 q 304 146 418 78 l 800 146 m 828 663 q 801 731 828 701 q 738 764 775 760 l 828 854 l 779 903 l 633 757 l 653 736 q 621 663 621 704 q 651 589 621 619 q 724 558 682 558 q 797 589 767 558 q 828 663 828 619 m 483 663 q 457 731 483 703 l 483 757 l 338 903 l 289 854 l 378 765 q 307 734 336 764 q 278 663 278 704 q 308 589 278 619 q 381 558 338 558 q 453 589 422 558 q 483 663 483 619 z "},"4":{"ha":1326,"x_min":-64,"x_max":1175,"o":"m 1175 553 q 1126 313 1175 425 q 992 116 1076 200 q 795 -17 908 32 q 556 -67 682 -67 q 315 -18 428 -67 q 118 115 203 31 q -15 313 33 200 q -64 553 -64 425 q -15 794 -64 681 q 117 991 33 907 q 315 1124 201 1075 q 556 1174 428 1174 q 795 1124 682 1174 q 992 990 908 1075 q 1126 792 1076 906 q 1175 553 1175 679 m 1107 553 q 1063 766 1107 665 q 944 942 1019 867 q 769 1060 869 1017 q 556 1104 668 1104 q 343 1061 443 1104 q 167 943 243 1018 q 48 767 92 868 q 4 553 4 667 q 188 143 4 307 l 188 140 l 192 140 q 556 3 347 3 q 769 47 668 3 q 944 165 869 90 q 1063 340 1019 240 q 1107 553 1107 440 m 840 347 l 763 347 l 763 415 l 840 415 l 840 347 m 1038 553 q 900 217 1038 356 l 900 485 l 211 485 l 211 217 q 74 553 74 356 q 112 740 74 653 q 215 894 150 828 q 368 998 281 960 q 556 1036 456 1036 q 743 997 656 1036 q 896 892 831 958 q 999 739 961 826 q 1038 553 1038 651 m 840 208 l 763 208 l 763 278 l 840 278 l 840 208 m 693 347 l 592 347 l 592 415 l 693 415 l 693 347 m 693 208 l 592 208 l 592 278 l 693 278 l 693 208 m 532 347 l 418 347 l 418 415 l 532 415 l 532 347 m 532 208 l 418 208 l 418 278 l 532 278 l 532 208 m 349 347 l 271 347 l 271 415 l 349 415 l 349 347 m 804 140 q 556 71 689 71 q 307 140 422 71 l 804 140 m 349 208 l 271 208 l 271 278 l 349 278 l 349 208 m 831 657 q 805 725 831 696 q 742 760 779 754 l 831 849 l 782 897 l 636 751 l 657 732 q 625 657 625 700 q 655 583 625 614 q 728 553 685 553 q 801 583 771 553 q 831 657 831 614 m 486 657 q 460 725 486 697 l 486 751 l 340 897 l 292 849 l 381 760 q 310 729 339 760 q 281 657 281 699 q 310 583 281 614 q 383 553 340 553 q 456 583 426 553 q 486 657 486 614 z "},"5":{"ha":1328,"x_min":-64,"x_max":1176,"o":"m 1176 553 q 1127 313 1176 425 q 994 116 1078 200 q 797 -17 910 32 q 557 -67 683 -67 q 317 -17 429 -67 q 119 116 204 32 q -15 313 35 200 q -64 553 -64 425 q -15 794 -64 681 q 119 991 35 907 q 316 1124 203 1075 q 557 1174 429 1174 q 797 1124 683 1174 q 994 990 910 1075 q 1127 792 1078 906 q 1176 553 1176 679 m 1104 557 q 1060 770 1104 669 q 942 946 1017 871 q 766 1065 867 1021 q 553 1108 665 1108 q 340 1065 440 1108 q 165 947 240 1022 q 45 772 89 872 q 1 557 1 671 q 45 343 1 443 q 164 168 89 243 q 339 49 239 93 q 553 6 439 6 q 767 50 667 6 q 943 169 868 94 q 1061 344 1018 244 q 1104 557 1104 444 m 1035 557 q 997 371 1035 458 q 893 218 958 283 q 740 114 828 153 q 553 75 653 75 q 365 113 453 75 q 213 217 278 151 q 109 369 147 282 q 71 557 71 457 q 109 744 71 657 q 213 898 147 832 q 367 1001 279 964 q 553 1039 454 1039 q 739 1001 651 1039 q 892 897 826 963 q 997 743 958 831 q 1035 557 1035 656 m 828 661 q 802 729 828 700 q 739 763 776 758 l 828 853 l 779 901 l 633 756 l 654 735 q 622 661 622 703 q 652 588 622 618 q 725 557 682 557 q 798 588 768 557 q 828 661 828 618 m 483 661 q 457 729 483 701 l 483 756 l 338 901 l 289 853 l 378 764 q 307 733 336 763 q 278 661 278 703 q 308 588 278 618 q 381 557 338 557 q 453 588 424 557 q 483 661 483 618 m 897 419 l 897 489 l 208 489 l 208 419 l 278 419 l 346 282 l 415 419 l 690 419 l 760 282 l 828 419 l 897 419 z "},"6":{"ha":1328,"x_min":-69,"x_max":1172,"o":"m 1172 549 q 1123 308 1172 421 q 990 110 1074 194 q 792 -23 906 26 q 551 -72 679 -72 q 310 -23 424 -72 q 113 110 197 26 q -20 308 29 194 q -69 549 -69 421 q 68 939 -69 768 l 68 1376 l 379 1144 q 551 1169 464 1169 q 722 1144 639 1169 l 1033 1376 l 1033 939 q 1172 549 1172 769 m 1099 551 q 954 924 1099 767 l 972 1242 l 722 1075 q 547 1104 636 1104 q 360 1071 449 1104 l 133 1242 l 133 917 q -6 551 -6 761 q 38 338 -6 438 q 157 163 82 238 q 333 44 232 88 q 547 0 433 0 q 762 44 661 0 q 938 164 863 89 q 1056 339 1013 239 q 1099 551 1099 439 m 1031 551 q 992 364 1031 451 q 888 211 954 276 q 735 108 822 146 q 547 69 647 69 q 360 108 447 69 q 206 211 272 146 q 102 364 140 276 q 64 551 64 451 q 102 738 64 650 q 206 892 140 826 q 360 997 272 958 q 547 1035 447 1035 q 734 997 646 1035 q 888 892 822 958 q 992 738 954 826 q 1031 551 1031 650 m 824 656 q 797 724 824 694 q 733 758 771 753 l 824 849 l 774 897 l 628 750 l 649 731 q 617 656 617 699 q 647 582 617 613 q 719 551 676 551 q 793 582 763 551 q 824 656 824 613 m 478 656 q 451 724 478 696 l 478 750 l 332 897 l 283 849 l 372 758 q 301 728 331 758 q 271 656 271 697 q 301 582 271 613 q 375 551 332 551 q 447 582 417 551 q 478 656 478 613 m 892 414 l 892 483 l 201 483 l 201 414 l 271 414 l 340 276 l 410 414 l 685 414 l 754 276 l 824 414 l 892 414 z "},"7":{"ha":1344,"x_min":-71,"x_max":1185,"o":"m 1185 551 q 1135 309 1185 424 q 1001 109 1086 194 q 801 -26 915 24 q 557 -76 686 -76 q 313 -27 428 -76 q 113 108 199 22 q -22 308 28 193 q -71 551 -71 422 q 63 938 -71 768 q -71 1110 -71 1013 q -22 1217 -71 1167 q 113 1306 28 1268 q 312 1367 197 1344 q 557 1389 426 1389 q 786 1369 674 1389 q 987 1312 899 1349 q 1130 1224 1075 1275 q 1185 1110 1185 1172 q 1051 938 1185 1013 q 1185 551 1185 768 m 1115 551 q 940 957 1115 792 q 1115 1110 1115 1017 q 1072 1190 1115 1151 q 953 1256 1028 1228 q 776 1302 878 1285 q 557 1319 674 1319 q 357 1304 457 1319 q 178 1261 257 1289 q 49 1195 99 1233 q -1 1110 -1 1157 q 174 957 -1 1017 q -1 551 -1 792 q 43 335 -1 436 q 163 158 88 233 q 340 38 239 82 q 557 -7 442 -7 q 773 38 671 -7 q 951 158 875 82 q 1071 335 1026 233 q 1115 551 1115 436 m 1044 1110 q 882 1006 1044 1047 q 557 1110 736 1110 q 232 1006 378 1110 q 68 1110 68 1047 q 109 1165 68 1139 q 218 1209 150 1190 q 374 1238 286 1228 q 557 1249 463 1249 q 738 1238 650 1249 q 894 1209 826 1228 q 1003 1165 963 1190 q 1044 1110 1044 1140 m 781 986 q 557 969 674 969 q 333 986 439 969 q 557 1040 439 1040 q 781 986 674 1040 m 1044 551 q 1006 363 1044 451 q 901 207 967 274 q 746 101 835 140 q 557 63 657 63 q 368 101 457 63 q 213 207 279 140 q 107 363 146 274 q 68 551 68 451 q 253 933 68 788 q 557 900 392 900 q 860 933 722 900 q 1044 551 1044 788 m 836 656 q 806 730 836 699 q 731 761 775 761 q 657 730 688 761 q 626 656 626 699 q 657 582 626 613 q 731 551 688 551 q 806 582 775 551 q 836 656 836 613 m 488 656 q 456 730 488 699 q 382 761 425 761 q 308 730 339 761 q 278 656 278 699 q 308 582 278 613 q 382 551 339 551 q 456 582 425 551 q 488 656 488 613 m 906 551 l 836 551 q 814 444 836 494 q 753 355 792 393 q 665 294 715 317 q 557 272 614 272 q 449 294 500 272 q 360 355 399 317 q 300 444 322 393 q 278 551 278 494 l 208 551 q 235 415 208 479 q 310 304 263 351 q 421 230 357 257 q 557 203 485 203 q 692 231 628 203 q 803 306 756 258 q 878 416 850 353 q 906 551 906 479 z "},"8":{"ha":1328,"x_min":-64,"x_max":1176,"o":"m 1176 556 q 1127 315 1176 428 q 994 117 1078 201 q 797 -16 910 33 q 556 -65 683 -65 q 315 -16 428 -65 q 119 118 203 33 q -15 315 35 203 q -64 556 -64 428 q -15 795 -64 682 q 119 992 35 908 q 315 1126 203 1076 q 556 1175 428 1175 q 795 1126 682 1175 q 993 992 908 1076 q 1127 795 1078 908 q 1176 556 1176 682 m 1103 558 q 1059 772 1103 672 q 940 947 1015 872 q 765 1066 865 1022 q 553 1110 665 1110 q 338 1066 439 1110 q 163 947 238 1022 q 44 772 88 872 q 1 558 1 672 q 44 346 1 446 q 163 170 88 246 q 338 51 238 94 q 553 7 438 7 q 767 51 667 7 q 942 169 867 94 q 1060 345 1017 244 q 1103 558 1103 446 m 1035 558 q 997 372 1035 460 q 892 219 958 285 q 739 115 826 153 q 553 76 651 76 q 365 115 453 76 q 212 219 278 153 q 108 372 146 285 q 69 558 69 460 q 108 746 69 658 q 213 899 147 833 q 367 1002 279 964 q 553 1040 454 1040 q 738 1002 650 1040 q 891 899 825 964 q 996 746 957 833 q 1035 558 1035 658 m 897 558 l 863 558 q 897 663 897 603 q 883 728 897 697 q 846 783 869 760 q 791 821 822 807 q 725 835 760 835 q 658 821 689 835 q 603 784 626 807 q 567 729 581 761 q 553 663 553 697 q 539 728 553 697 q 501 783 525 760 q 447 821 478 807 q 381 835 415 835 q 313 821 344 835 q 259 784 282 807 q 222 729 236 761 q 208 663 208 697 q 242 558 208 604 l 208 558 q 235 425 208 488 q 310 315 263 363 q 419 241 357 268 q 553 214 482 214 q 686 242 624 214 q 795 316 749 269 q 869 425 842 363 q 897 558 897 488 m 811 663 q 785 601 811 626 q 725 576 760 576 q 664 601 689 576 q 639 663 639 626 q 664 723 639 697 q 725 749 689 749 q 785 723 760 749 q 811 663 811 697 m 467 663 q 441 601 467 626 q 381 576 415 576 q 319 601 344 576 q 294 663 294 626 q 319 723 294 697 q 381 749 344 749 q 441 723 415 749 q 467 663 467 697 m 825 522 q 794 428 818 472 q 734 352 771 385 q 651 301 697 319 q 553 283 604 283 q 453 301 500 283 q 371 351 407 319 q 310 427 335 383 q 279 522 286 471 q 381 490 324 490 q 447 504 415 490 q 502 541 479 518 q 539 595 525 564 q 553 663 553 626 q 566 595 553 626 q 603 540 579 564 q 658 503 626 517 q 725 490 689 490 q 825 522 781 490 z "},"9":{"ha":1328,"x_min":-69,"x_max":1172,"o":"m 1172 549 q 1123 308 1172 421 q 990 110 1074 194 q 792 -23 906 26 q 551 -72 679 -72 q 310 -23 424 -72 q 113 110 197 26 q -20 308 29 194 q -69 549 -69 421 q 68 939 -69 768 l 68 1376 l 379 1146 q 551 1169 467 1169 q 724 1146 636 1169 l 1035 1376 l 1035 939 q 1172 549 1172 768 m 1099 553 q 954 925 1099 765 l 972 1242 l 724 1075 q 547 1104 638 1104 q 361 1072 453 1104 l 133 1242 l 133 917 q -4 553 -4 760 q 39 338 -4 439 q 157 163 82 238 q 332 44 232 88 q 547 0 432 0 q 762 44 661 0 q 938 163 863 88 q 1056 338 1013 238 q 1099 553 1099 439 m 1031 553 q 992 365 1031 453 q 888 212 954 278 q 734 108 822 146 q 547 69 646 69 q 360 108 447 69 q 206 212 272 146 q 102 365 140 278 q 64 553 64 453 q 103 740 64 653 q 208 893 142 828 q 361 997 274 958 q 547 1035 449 1035 q 733 997 646 1035 q 887 893 821 958 q 992 740 953 828 q 1031 553 1031 653 m 824 656 q 798 724 824 694 q 733 758 772 753 l 824 849 l 775 897 l 628 751 l 649 731 q 617 656 617 699 q 647 583 617 613 q 719 553 676 553 q 793 583 763 553 q 824 656 824 613 m 478 656 q 451 725 478 697 l 478 751 l 332 897 l 283 849 l 372 760 q 301 728 331 758 q 271 656 271 697 q 301 583 271 613 q 375 553 332 553 q 448 583 418 553 q 478 656 478 613 m 892 553 l 824 553 q 801 446 824 496 q 742 358 779 396 q 653 299 704 321 q 547 276 603 276 q 440 298 490 276 q 351 357 389 319 q 292 445 314 394 q 271 553 271 496 l 203 553 q 230 419 203 482 q 304 308 257 356 q 414 234 351 261 q 547 207 476 207 q 681 235 618 207 q 791 310 744 263 q 865 419 838 357 q 892 553 892 482 z "}," ":{"ha":694,"x_min":0,"x_max":0,"o":""},"#":{"ha":1326,"x_min":-64,"x_max":1175,"o":"m 1175 553 q 1126 313 1175 425 q 992 116 1076 200 q 795 -17 908 32 q 556 -67 682 -67 q 315 -18 428 -67 q 118 115 203 31 q -15 313 33 200 q -64 553 -64 425 q -15 794 -64 681 q 117 991 33 907 q 315 1124 201 1075 q 556 1174 428 1174 q 795 1124 682 1174 q 992 990 908 1075 q 1126 792 1076 906 q 1175 553 1175 679 m 1107 553 q 1063 766 1107 665 q 944 942 1019 867 q 769 1060 869 1017 q 556 1104 668 1104 q 343 1061 443 1104 q 167 943 243 1018 q 48 767 92 868 q 4 553 4 667 q 188 143 4 307 l 188 140 l 192 140 q 556 3 347 3 q 769 47 668 3 q 944 165 869 90 q 1063 340 1019 240 q 1107 553 1107 440 m 840 347 l 763 347 l 763 415 l 840 415 l 840 347 m 1038 553 q 900 217 1038 356 l 900 485 l 211 485 l 211 217 q 74 553 74 356 q 112 740 74 653 q 215 894 150 828 q 368 998 281 960 q 556 1036 456 1036 q 743 997 656 1036 q 896 892 831 958 q 999 739 961 826 q 1038 553 1038 651 m 840 208 l 763 208 l 763 278 l 840 278 l 840 208 m 693 347 l 592 347 l 592 415 l 693 415 l 693 347 m 693 208 l 592 208 l 592 278 l 693 278 l 693 208 m 532 347 l 418 347 l 418 415 l 532 415 l 532 347 m 532 208 l 418 208 l 418 278 l 532 278 l 532 208 m 349 347 l 271 347 l 271 415 l 349 415 l 349 347 m 804 140 q 556 71 689 71 q 307 140 422 71 l 804 140 m 349 208 l 271 208 l 271 278 l 349 278 l 349 208 m 831 657 q 805 725 831 696 q 742 760 779 754 l 831 849 l 782 897 l 636 751 l 657 732 q 625 657 625 700 q 655 583 625 614 q 728 553 685 553 q 801 583 771 553 q 831 657 831 614 m 486 657 q 460 725 486 697 l 486 751 l 340 897 l 292 849 l 381 760 q 310 729 339 760 q 281 657 281 699 q 310 583 281 614 q 383 553 340 553 q 456 583 426 553 q 486 657 486 614 z "},"$":{"ha":664,"x_min":0,"x_max":0,"o":""},"%":{"ha":1311,"x_min":-61,"x_max":1161,"o":"m 1161 550 q 1113 314 1161 425 q 981 119 1064 203 q 786 -12 897 36 q 550 -61 675 -61 q 314 -12 425 -61 q 119 119 203 36 q -12 314 36 203 q -61 550 -61 425 q -41 704 -61 629 q 16 847 -21 779 q 106 970 53 914 q 226 1068 160 1026 l 193 1101 l 433 1342 l 549 1226 l 661 1339 l 900 1099 l 872 1069 q 992 971 939 1028 q 1083 847 1046 914 q 1141 703 1121 779 q 1161 550 1161 628 m 550 1161 l 544 1165 l 540 1161 l 550 1161 m 1089 560 q 1067 710 1089 636 q 1006 847 1046 783 q 909 963 965 911 q 783 1049 853 1014 l 818 1083 l 674 1226 l 626 1179 l 736 1068 q 546 1103 646 1103 q 374 1075 461 1103 l 478 1179 l 431 1226 l 286 1083 l 317 1051 q 188 967 246 1018 q 88 851 129 915 q 25 713 47 786 q 3 560 3 639 q 22 419 3 488 q 76 289 40 350 q 161 176 111 228 q 275 89 211 125 l 275 83 l 283 83 q 546 17 406 17 q 757 60 658 17 q 930 177 856 103 q 1047 350 1004 251 q 1089 560 1089 449 m 1022 560 q 968 340 1022 443 q 818 169 914 236 l 818 383 q 954 661 954 494 l 872 661 q 845 542 872 597 q 774 448 818 488 q 669 385 729 408 q 546 363 610 363 q 422 386 481 363 q 318 450 363 410 q 247 544 274 490 q 221 661 221 599 l 139 661 q 275 383 139 494 l 275 169 q 125 340 179 236 q 71 560 71 443 q 108 743 71 657 q 210 894 146 829 q 362 997 275 958 q 546 1035 449 1035 q 730 997 643 1035 q 881 895 817 960 q 984 744 946 831 q 1022 560 1022 657 m 750 219 l 621 219 l 621 294 q 688 311 656 300 q 750 338 719 322 l 750 219 m 792 151 q 561 85 685 89 l 561 151 l 792 151 m 486 151 l 343 151 l 343 338 q 486 292 410 301 l 486 151 m 750 661 q 720 733 750 703 q 649 763 690 763 q 576 733 606 763 q 546 661 546 703 q 576 590 546 619 q 649 560 606 560 q 720 590 690 560 q 750 661 750 619 m 546 729 q 516 801 546 771 q 444 831 486 831 q 373 801 403 831 q 343 729 343 771 q 373 658 343 688 q 444 628 403 628 q 516 658 486 628 q 546 729 546 688 z "},"&":{"ha":664,"x_min":0,"x_max":0,"o":""},"'":{"ha":664,"x_min":0,"x_max":0,"o":""},"(":{"ha":1335,"x_min":-69,"x_max":1183,"o":"m 1183 553 q 1134 310 1183 424 q 999 110 1085 196 q 800 -25 914 25 q 557 -75 686 -75 q 313 -25 428 -75 q 114 110 199 25 q -20 310 29 196 q -69 553 -69 424 q -20 794 -69 681 q 115 994 29 908 q 314 1129 200 1079 q 557 1179 428 1179 q 799 1129 685 1179 q 998 994 913 1079 q 1133 794 1083 908 q 1183 553 1183 681 m 1114 553 q 1069 768 1114 667 q 949 945 1025 869 q 772 1065 874 1021 q 557 1110 671 1110 q 342 1066 443 1110 q 165 947 240 1022 q 44 769 89 871 q 0 553 0 668 q 44 337 0 438 q 164 160 88 236 q 341 40 240 83 q 557 -4 442 -4 q 774 40 672 -4 q 951 160 875 85 q 1070 338 1026 236 q 1114 553 1114 439 m 1044 553 q 904 211 1044 354 q 875 344 903 282 q 799 452 847 406 q 689 526 751 499 q 557 553 626 553 q 424 526 486 553 q 313 452 361 499 q 238 344 265 406 q 208 211 210 282 q 69 553 69 351 q 108 742 69 654 q 214 897 147 831 q 369 1001 281 963 q 557 1039 457 1039 q 745 1001 657 1039 q 900 896 833 963 q 1006 741 967 829 q 1044 553 1044 653 m 897 204 q 557 65 757 65 q 215 204 358 65 l 278 204 q 300 312 278 261 q 360 400 322 363 q 449 460 399 438 q 557 482 500 482 q 665 460 614 482 q 753 400 715 438 q 813 312 790 363 q 835 204 835 261 l 897 204 m 835 657 q 804 731 835 700 q 731 761 774 761 q 657 731 688 761 q 626 657 626 700 q 657 583 626 614 q 731 553 688 553 q 804 583 774 553 q 835 657 835 614 m 488 657 q 456 731 488 700 q 382 761 425 761 q 308 731 339 761 q 278 657 278 700 q 308 583 278 614 q 382 553 339 553 q 456 583 425 553 q 488 657 488 614 z "},")":{"ha":1336,"x_min":-69,"x_max":1183,"o":"m 1183 557 q 1134 314 1183 428 q 999 115 1085 200 q 800 -20 914 29 q 557 -69 686 -69 q 314 -20 428 -69 q 115 115 200 29 q -20 314 29 200 q -69 557 -69 428 q -20 800 -69 686 q 115 999 29 914 q 314 1134 200 1085 q 557 1183 428 1183 q 800 1134 686 1183 q 999 999 914 1085 q 1134 800 1085 914 q 1183 557 1183 686 m 1114 557 q 1069 772 1114 671 q 949 949 1025 874 q 772 1069 874 1025 q 557 1114 671 1114 q 342 1070 443 1114 q 165 951 240 1026 q 44 774 89 875 q 0 557 0 672 q 44 341 0 442 q 164 164 88 240 q 341 44 240 88 q 557 0 442 0 q 774 44 672 0 q 951 165 875 89 q 1070 342 1026 240 q 1114 557 1114 443 m 1044 557 q 1006 368 1044 457 q 901 213 967 279 q 746 108 835 147 q 557 69 657 69 q 368 108 457 69 q 213 213 279 147 q 108 368 147 279 q 69 557 69 457 q 108 746 69 657 q 214 901 147 835 q 369 1006 281 968 q 557 1044 457 1044 q 745 1006 657 1044 q 900 901 833 968 q 1006 746 967 835 q 1044 557 1044 657 m 836 661 q 805 735 836 704 q 731 767 774 767 q 657 735 688 767 q 626 661 626 704 q 657 588 626 618 q 731 557 688 557 q 805 588 774 557 q 836 661 836 618 m 488 661 q 457 735 488 704 q 383 767 426 767 q 310 735 340 767 q 279 661 279 704 q 310 588 279 618 q 383 557 340 557 q 457 588 426 557 q 488 661 488 618 m 906 557 l 836 557 q 814 448 836 499 q 753 360 792 397 q 665 301 715 322 q 557 279 614 279 q 448 301 499 279 q 360 360 397 322 q 301 448 322 397 q 279 557 279 499 l 208 557 q 236 422 208 485 q 311 311 264 358 q 422 237 358 264 q 557 210 485 210 q 692 238 628 210 q 803 313 756 265 q 878 423 850 360 q 906 557 906 486 z "},"*":{"ha":664,"x_min":0,"x_max":0,"o":""},"+":{"ha":664,"x_min":0,"x_max":0,"o":""},",":{"ha":1335,"x_min":-69,"x_max":1183,"o":"m 1183 558 q 1134 315 1183 429 q 999 116 1085 201 q 800 -19 914 31 q 557 -68 686 -68 q 314 -19 428 -68 q 115 116 200 31 q -20 315 29 201 q -69 558 -69 429 q -20 801 -69 688 q 115 1001 29 915 q 314 1135 200 1086 q 557 1185 428 1185 q 800 1135 686 1185 q 999 1001 914 1086 q 1134 801 1085 915 q 1183 558 1183 688 m 1114 558 q 1069 774 1114 672 q 949 951 1025 875 q 772 1071 874 1026 q 557 1115 671 1115 q 342 1072 443 1115 q 165 952 240 1028 q 44 775 89 876 q 0 558 0 674 q 44 342 0 443 q 164 165 88 242 q 341 45 240 89 q 557 1 442 1 q 774 46 672 1 q 951 166 875 90 q 1070 343 1026 242 q 1114 558 1114 444 m 904 558 q 881 431 904 494 l 429 882 q 557 907 489 907 q 691 879 628 907 q 801 803 754 851 q 876 692 849 756 q 904 558 904 629 m 683 235 q 557 210 622 210 q 421 237 485 210 q 310 311 357 264 q 235 422 263 358 q 208 558 208 486 q 232 686 208 622 l 683 235 z "},"-":{"ha":664,"x_min":0,"x_max":0,"o":""},".":{"ha":1328,"x_min":-64,"x_max":1175,"o":"m 1175 556 q 1126 315 1175 428 q 992 118 1076 203 q 795 -16 908 33 q 556 -65 682 -65 q 315 -16 428 -65 q 117 117 201 33 q -15 315 33 201 q -64 556 -64 428 q -15 795 -64 682 q 118 992 33 908 q 315 1126 203 1076 q 556 1175 428 1175 q 795 1126 682 1175 q 992 992 908 1076 q 1126 795 1076 908 q 1175 556 1175 682 m 1103 560 q 1059 772 1103 672 q 940 947 1015 872 q 765 1066 865 1022 q 551 1110 665 1110 q 338 1067 439 1110 q 163 949 238 1024 q 44 774 88 874 q 0 560 0 674 q 44 344 0 444 q 163 169 88 244 q 339 51 239 94 q 551 8 439 8 q 765 51 665 8 q 940 169 865 94 q 1059 345 1015 244 q 1103 560 1103 446 m 896 560 q 869 426 896 489 q 795 317 842 364 q 686 243 749 271 q 551 215 624 215 q 418 242 481 215 q 308 317 356 269 q 234 426 261 364 q 207 560 207 489 q 235 693 207 631 q 309 802 263 756 q 418 876 356 849 q 551 904 481 904 q 685 876 622 904 q 795 801 749 849 q 869 692 842 754 q 896 560 896 629 m 689 560 q 649 658 689 618 q 551 697 610 697 q 453 658 493 697 q 414 560 414 618 q 453 461 414 501 q 551 421 493 421 q 649 461 610 421 q 689 560 689 501 z "},"/":{"ha":1329,"x_min":-62,"x_max":1176,"o":"m 1176 558 q 1127 318 1176 431 q 994 121 1078 206 q 797 -13 910 36 q 557 -62 683 -62 q 316 -13 429 -62 q 119 120 203 36 q -14 317 35 204 q -62 558 -62 431 q -14 798 -62 685 q 119 995 35 911 q 317 1128 204 1079 q 557 1178 429 1178 q 797 1128 683 1178 q 994 995 910 1079 q 1127 798 1078 911 q 1176 558 1176 685 m 1108 565 q 1065 778 1108 678 q 945 953 1021 878 q 769 1073 869 1029 q 557 1117 669 1117 q 344 1074 444 1117 q 169 956 244 1031 q 50 780 94 881 q 6 565 6 679 q 49 351 6 451 q 168 176 93 251 q 343 58 243 101 q 557 14 443 14 q 772 58 671 14 q 947 178 872 103 q 1065 353 1022 253 q 1108 565 1108 453 m 1039 565 q 1001 379 1039 467 q 898 226 964 292 q 744 122 832 160 q 557 83 657 83 q 369 122 457 83 q 217 225 282 160 q 113 378 151 290 q 75 565 75 465 q 113 753 75 665 q 217 906 151 840 q 371 1010 283 972 q 557 1047 458 1047 q 743 1009 656 1047 q 897 905 831 971 q 1001 751 963 839 q 1039 565 1039 664 m 832 668 q 802 742 832 711 q 729 772 772 772 q 656 742 686 772 q 626 668 626 711 q 656 596 626 626 q 729 565 686 565 q 802 596 772 565 q 832 668 832 626 m 488 668 q 458 742 488 711 q 385 772 428 772 q 312 742 342 772 q 282 668 282 711 q 312 596 282 626 q 385 565 342 565 q 458 596 428 565 q 488 668 488 626 m 832 428 l 799 488 l 321 211 l 356 151 l 832 428 z "},":":{"ha":1336,"x_min":-69,"x_max":1183,"o":"m 1183 557 q 1134 314 1183 428 q 999 115 1085 200 q 800 -20 914 29 q 557 -69 686 -69 q 314 -20 428 -69 q 115 115 200 29 q -20 314 29 200 q -69 557 -69 428 q -20 800 -69 686 q 115 999 29 914 q 314 1134 200 1085 q 557 1183 428 1183 q 800 1134 686 1183 q 999 999 914 1085 q 1134 800 1085 914 q 1183 557 1183 686 m 1114 557 q 1069 772 1114 671 q 949 949 1025 874 q 772 1069 874 1025 q 557 1114 671 1114 q 342 1070 443 1114 q 165 951 240 1026 q 44 774 89 875 q 0 557 0 672 q 44 341 0 442 q 164 164 88 240 q 341 44 240 88 q 557 0 442 0 q 774 44 672 0 q 951 165 875 89 q 1070 342 1026 240 q 1114 557 1114 443 m 1044 557 q 1006 368 1044 457 q 901 213 967 279 q 746 108 835 147 q 557 69 657 69 q 368 108 457 69 q 213 213 279 147 q 108 368 147 279 q 69 557 69 457 q 108 746 69 657 q 214 901 147 835 q 369 1006 281 968 q 557 1044 457 1044 q 745 1006 657 1044 q 900 901 833 968 q 1006 746 967 835 q 1044 557 1044 657 m 836 661 q 805 735 836 704 q 731 767 774 767 q 657 735 688 767 q 626 661 626 704 q 657 588 626 618 q 731 557 688 557 q 805 588 774 557 q 836 661 836 618 m 488 661 q 457 735 488 704 q 383 767 426 767 q 310 735 340 767 q 279 661 279 704 q 310 588 279 618 q 383 557 340 557 q 457 588 426 557 q 488 661 488 618 m 906 557 l 836 557 q 814 448 836 499 q 753 360 792 397 q 665 301 715 322 q 557 279 614 279 q 448 301 499 279 q 360 360 397 322 q 301 448 322 397 q 279 557 279 499 l 208 557 q 236 422 208 485 q 311 311 264 358 q 422 237 358 264 q 557 210 485 210 q 692 238 628 210 q 803 313 756 265 q 878 423 850 360 q 906 557 906 486 z "},";":{"ha":1329,"x_min":-64,"x_max":1176,"o":"m 1176 557 q 1127 316 1176 429 q 994 119 1078 203 q 797 -14 910 35 q 556 -62 683 -62 q 315 -14 428 -62 q 118 119 203 35 q -15 317 33 204 q -64 557 -64 429 q -15 797 -64 683 q 119 994 35 910 q 315 1128 203 1079 q 556 1178 428 1178 q 797 1128 683 1178 q 994 995 910 1079 q 1127 798 1078 911 q 1176 557 1176 685 m 1107 565 q 1063 778 1107 678 q 944 953 1019 878 q 769 1072 869 1028 q 556 1115 669 1115 q 343 1072 443 1115 q 168 953 243 1028 q 49 778 93 878 q 6 565 6 678 q 49 351 6 451 q 168 176 93 251 q 343 58 243 101 q 556 14 443 14 q 769 57 669 14 q 944 175 869 100 q 1063 351 1019 250 q 1107 565 1107 451 m 1039 565 q 1001 378 1039 465 q 897 224 963 290 q 742 120 831 158 q 556 82 654 82 q 369 120 457 82 q 216 224 282 158 q 112 378 150 290 q 74 565 74 465 q 112 751 74 664 q 216 905 150 839 q 369 1009 282 971 q 556 1047 457 1047 q 743 1009 656 1047 q 897 905 831 971 q 1001 751 963 839 q 1039 565 1039 664 m 832 668 q 801 741 832 711 q 728 771 771 771 q 656 741 686 771 q 625 668 625 711 q 656 595 625 625 q 728 565 686 565 q 801 595 771 565 q 832 668 832 625 m 488 633 l 488 703 l 281 703 l 281 633 l 488 633 m 900 565 l 832 565 q 810 458 832 508 q 750 371 788 408 q 662 311 713 333 q 556 289 611 289 q 449 311 499 289 q 361 371 399 333 q 302 458 324 408 q 281 565 281 508 l 211 565 q 238 432 211 494 q 313 322 265 369 q 422 248 360 275 q 556 221 485 221 q 690 249 628 221 q 799 323 753 276 q 873 432 846 369 q 900 565 900 494 z "},"<":{"ha":664,"x_min":0,"x_max":0,"o":""},"=":{"ha":664,"x_min":0,"x_max":0,"o":""},">":{"ha":664,"x_min":0,"x_max":0,"o":""},"?":{"ha":664,"x_min":0,"x_max":0,"o":""},"@":{"ha":664,"x_min":0,"x_max":0,"o":""},"A":{"ha":1336,"x_min":-69,"x_max":1183,"o":"m 1183 557 q 1134 314 1183 428 q 999 115 1085 200 q 800 -20 914 29 q 557 -69 686 -69 q 314 -20 428 -69 q 115 115 200 29 q -20 314 29 200 q -69 557 -69 428 q -20 800 -69 686 q 115 999 29 914 q 314 1134 200 1085 q 557 1183 428 1183 q 800 1134 686 1183 q 999 999 914 1085 q 1134 800 1085 914 q 1183 557 1183 686 m 1114 557 q 1069 772 1114 671 q 949 949 1025 874 q 772 1069 874 1025 q 557 1114 671 1114 q 342 1070 443 1114 q 165 951 240 1026 q 44 774 89 875 q 0 557 0 672 q 44 341 0 442 q 164 164 88 240 q 341 44 240 88 q 557 0 442 0 q 774 44 672 0 q 951 165 875 89 q 1070 342 1026 240 q 1114 557 1114 443 m 1044 557 q 1006 368 1044 457 q 901 213 967 279 q 746 108 835 147 q 557 69 657 69 q 368 108 457 69 q 213 213 279 147 q 108 368 147 279 q 69 557 69 457 q 108 746 69 657 q 214 901 147 835 q 369 1006 281 968 q 557 1044 457 1044 q 745 1006 657 1044 q 900 901 833 968 q 1006 746 967 835 q 1044 557 1044 657 m 836 661 q 805 735 836 704 q 731 767 774 767 q 657 735 688 767 q 626 661 626 704 q 657 588 626 618 q 731 557 688 557 q 805 588 774 557 q 836 661 836 618 m 488 661 q 457 735 488 704 q 383 767 426 767 q 310 735 340 767 q 279 661 279 704 q 310 588 279 618 q 383 557 340 557 q 457 588 426 557 q 488 661 488 618 m 906 557 l 836 557 q 814 448 836 499 q 753 360 792 397 q 665 301 715 322 q 557 279 614 279 q 448 301 499 279 q 360 360 397 322 q 301 448 322 397 q 279 557 279 499 l 208 557 q 236 422 208 485 q 311 311 264 358 q 422 237 358 264 q 557 210 485 210 q 692 238 628 210 q 803 313 756 265 q 878 423 850 360 q 906 557 906 486 z "},"B":{"ha":1329,"x_min":-64,"x_max":1176,"o":"m 1176 558 q 1127 317 1176 431 q 994 120 1078 204 q 797 -13 910 36 q 556 -62 683 -62 q 315 -13 428 -62 q 119 121 203 36 q -15 318 35 206 q -64 558 -64 431 q -15 798 -64 685 q 119 995 35 911 q 315 1128 203 1079 q 556 1178 428 1178 q 795 1128 682 1178 q 993 995 908 1079 q 1127 798 1078 911 q 1176 558 1176 685 m 1103 561 q 1035 828 1103 706 l 1035 838 l 1029 838 q 942 951 993 900 q 828 1038 890 1003 q 697 1093 767 1074 q 553 1113 626 1113 q 409 1093 479 1113 q 277 1038 339 1074 q 163 952 215 1003 q 75 838 111 901 l 69 838 l 69 828 q 1 561 1 706 q 44 349 1 449 q 163 173 88 249 q 338 53 238 97 q 553 10 438 10 q 767 53 667 10 q 942 172 867 97 q 1060 348 1017 247 q 1103 561 1103 449 m 947 838 l 157 838 q 328 989 224 935 q 553 1043 432 1043 q 776 989 671 1043 q 947 838 881 935 m 1035 561 q 997 375 1035 463 q 892 222 958 288 q 739 117 826 156 q 553 79 651 79 q 365 117 453 79 q 212 222 278 156 q 108 375 146 288 q 69 561 69 463 q 117 768 69 672 l 208 768 l 208 699 q 222 644 208 669 q 260 600 236 618 q 316 572 285 582 q 381 561 347 561 q 444 572 414 561 q 499 601 475 582 q 538 644 524 619 q 553 699 553 669 q 567 644 553 669 q 605 600 581 618 q 660 572 629 582 q 725 561 692 561 q 789 572 758 561 q 844 601 819 582 q 883 644 868 619 q 897 699 897 669 l 897 768 l 988 768 q 1035 561 1035 672 m 897 561 l 828 561 q 806 454 828 504 q 746 367 783 404 q 658 308 708 329 q 553 286 608 286 q 446 308 496 286 q 358 367 396 329 q 299 454 321 404 q 276 561 276 504 l 208 561 q 235 428 208 490 q 310 318 263 365 q 419 244 357 271 q 553 217 482 217 q 686 244 624 217 q 795 319 749 272 q 869 428 842 365 q 897 561 897 490 z "},"C":{"ha":1328,"x_min":-64,"x_max":1176,"o":"m 1176 556 q 1127 315 1176 428 q 994 117 1078 201 q 797 -16 910 33 q 556 -65 683 -65 q 315 -16 428 -65 q 119 118 203 33 q -15 315 35 203 q -64 556 -64 428 q -15 795 -64 682 q 119 992 35 908 q 315 1126 203 1076 q 556 1175 428 1175 q 795 1126 682 1175 q 993 992 908 1076 q 1127 795 1078 908 q 1176 556 1176 682 m 1107 563 q 1063 776 1107 676 q 944 951 1019 876 q 769 1070 869 1026 q 556 1114 669 1114 q 343 1070 443 1114 q 168 951 243 1026 q 49 776 93 876 q 6 563 6 676 q 49 350 6 450 q 168 175 93 250 q 343 56 243 100 q 556 13 443 13 q 769 56 669 13 q 944 175 869 100 q 1063 350 1019 250 q 1107 563 1107 450 m 1039 563 q 1001 376 1039 464 q 897 223 963 289 q 743 119 831 157 q 556 81 656 81 q 369 119 457 81 q 216 223 282 157 q 112 376 150 289 q 74 563 74 464 q 112 750 74 663 q 216 903 150 838 q 369 1008 282 969 q 556 1046 457 1046 q 742 1008 654 1046 q 897 903 831 969 q 1001 749 963 838 q 1039 563 1039 661 m 832 667 q 801 739 832 708 q 728 769 771 769 q 656 739 686 769 q 625 667 625 708 q 656 593 625 624 q 728 563 686 563 q 801 593 771 563 q 832 667 832 624 m 488 667 q 457 739 488 708 q 383 769 426 769 q 311 739 342 769 q 281 667 281 708 q 311 593 281 624 q 383 563 342 563 q 457 593 426 563 q 488 667 488 624 m 832 357 l 832 425 l 281 425 l 281 357 l 832 357 z "},"D":{"ha":1322,"x_min":-58,"x_max":1169,"o":"m 1169 556 q 1121 319 1169 431 q 989 123 1072 207 q 794 -10 906 39 q 556 -58 682 -58 q 317 -10 429 -58 q 122 122 206 39 q -10 317 39 206 q -58 556 -58 429 q -10 793 -58 682 q 123 988 39 904 q 319 1119 207 1071 q 556 1168 431 1168 q 792 1119 681 1168 q 988 987 904 1071 q 1121 792 1072 903 q 1169 556 1169 681 m 1101 563 q 1058 774 1101 675 q 941 948 1015 874 q 767 1065 867 1022 q 556 1108 668 1108 q 344 1065 443 1108 q 170 948 244 1022 q 53 774 96 874 q 10 563 10 675 q 53 352 10 451 q 170 178 96 253 q 344 61 244 104 q 556 18 443 18 q 767 61 668 18 q 941 178 867 104 q 1058 352 1015 253 q 1101 563 1101 451 m 1032 563 q 994 378 1032 464 q 892 226 957 292 q 740 124 826 161 q 556 86 653 86 q 370 124 457 86 q 219 226 283 161 q 117 377 154 290 q 79 563 79 464 q 117 747 79 660 q 219 899 154 833 q 371 1001 285 964 q 556 1039 457 1039 q 740 1001 653 1039 q 891 898 826 963 q 994 747 956 833 q 1032 563 1032 660 m 828 688 q 798 760 828 729 q 726 790 768 790 q 653 760 683 790 q 624 688 624 729 q 653 615 624 646 q 726 585 683 585 q 798 615 768 585 q 828 688 828 646 m 488 688 q 458 760 488 729 q 385 790 428 790 q 313 760 343 790 q 283 688 283 729 q 313 615 283 646 q 385 585 343 585 q 458 615 428 585 q 488 688 488 646 m 896 517 l 215 517 q 242 385 215 447 q 316 277 269 324 q 424 203 363 231 q 556 176 486 176 q 687 203 625 176 q 795 277 749 231 q 869 385 842 324 q 896 517 896 447 m 819 449 q 783 367 808 404 q 722 302 757 329 q 644 260 688 275 q 556 244 601 244 q 467 260 510 244 q 389 302 424 275 q 328 367 354 329 q 292 449 303 404 l 819 449 z "},"E":{"ha":1324,"x_min":-57,"x_max":1171,"o":"m 1171 556 q 1122 318 1171 429 q 990 124 1074 207 q 795 -8 907 40 q 557 -57 683 -57 q 319 -9 431 -57 q 124 122 207 39 q -8 317 40 206 q -57 556 -57 428 q -8 794 -57 682 q 124 989 40 906 q 320 1121 208 1072 q 557 1169 432 1169 q 794 1121 682 1169 q 990 988 906 1072 q 1122 792 1074 904 q 1171 556 1171 681 m 1101 564 q 1058 774 1101 675 q 941 948 1015 874 q 767 1065 867 1022 q 557 1108 668 1108 q 345 1065 444 1108 q 172 948 246 1022 q 54 774 97 874 q 11 564 11 675 q 54 352 11 451 q 172 178 97 253 q 345 61 246 104 q 557 18 444 18 q 767 61 668 18 q 941 178 867 104 q 1058 352 1015 253 q 1101 564 1101 451 m 1033 564 q 996 378 1033 465 q 893 226 958 292 q 741 124 828 161 q 557 86 654 86 q 372 124 458 86 q 219 226 285 161 q 117 378 154 292 q 79 564 79 465 q 117 748 79 661 q 220 900 156 835 q 372 1003 285 965 q 557 1040 458 1040 q 741 1002 654 1040 q 892 899 828 964 q 995 748 957 835 q 1033 564 1033 661 m 829 665 q 799 738 829 708 q 728 768 769 768 q 655 738 685 768 q 625 665 625 708 q 655 594 625 624 q 728 564 685 564 q 799 594 769 564 q 829 665 829 624 m 489 665 q 459 738 489 708 q 386 768 429 768 q 315 738 344 768 q 285 665 285 708 q 315 594 285 624 q 386 564 344 564 q 459 594 429 564 q 489 665 489 624 m 829 358 l 829 426 l 285 426 l 285 358 l 557 358 q 567 281 557 318 q 596 217 578 244 q 639 172 614 189 q 693 154 664 154 q 747 172 722 154 q 790 217 772 189 q 819 281 808 244 q 829 358 829 318 m 761 358 q 756 313 761 338 q 740 269 750 289 q 719 235 731 249 q 693 222 707 222 q 667 235 679 222 q 645 269 654 249 q 631 313 636 289 q 625 358 625 338 l 761 358 z "},"F":{"ha":1329,"x_min":-61,"x_max":1176,"o":"m 1176 556 q 1127 315 1176 428 q 994 119 1078 203 q 797 -15 910 35 q 557 -64 683 -64 q 317 -15 429 -64 q 121 119 206 35 q -12 315 36 203 q -61 556 -61 428 q -12 795 -61 682 q 121 992 36 908 q 317 1126 206 1076 q 557 1175 429 1175 q 797 1126 683 1175 q 994 992 910 1076 q 1127 795 1078 908 q 1176 556 1176 682 m 1108 564 q 1065 776 1108 676 q 946 951 1021 876 q 770 1070 871 1026 q 557 1114 669 1114 q 344 1070 444 1114 q 169 951 244 1026 q 51 776 94 876 q 7 564 7 676 q 50 351 7 451 q 168 175 93 250 q 343 56 243 100 q 557 13 443 13 q 772 57 671 13 q 947 176 872 101 q 1065 351 1022 251 q 1108 564 1108 451 m 1039 564 q 1001 378 1039 465 q 898 224 964 290 q 744 120 832 158 q 557 82 657 82 q 371 120 458 82 q 218 224 283 158 q 115 376 153 289 q 76 564 76 464 q 115 751 76 664 q 219 904 153 839 q 372 1007 285 969 q 557 1044 458 1044 q 743 1006 656 1044 q 897 902 831 968 q 1001 749 963 836 q 1039 564 1039 661 m 833 667 q 803 740 833 710 q 729 769 772 769 q 657 740 688 769 q 626 667 626 710 q 657 594 626 624 q 729 564 688 564 q 803 594 772 564 q 833 667 833 624 m 489 667 q 458 740 489 710 q 386 769 428 769 q 313 740 343 769 q 282 667 282 710 q 313 594 282 624 q 386 564 343 564 q 458 594 428 564 q 489 667 489 624 m 764 357 l 764 426 l 351 426 l 351 357 l 419 357 q 430 280 419 317 q 459 214 440 243 q 503 167 478 185 q 557 150 528 150 q 612 167 586 150 q 656 213 638 185 q 684 279 674 242 q 694 357 694 317 l 764 357 m 626 357 q 621 310 626 335 q 606 266 615 286 q 583 233 596 246 q 557 219 571 219 q 531 233 543 219 q 509 266 518 246 q 494 310 500 286 q 489 357 489 335 l 626 357 z "},"G":{"ha":1325,"x_min":-56,"x_max":1171,"o":"m 1171 556 q 1122 318 1171 429 q 990 124 1074 207 q 795 -8 907 40 q 557 -57 683 -57 q 319 -8 431 -57 q 125 124 208 40 q -7 318 42 207 q -56 556 -56 429 q -7 794 -56 682 q 125 989 42 906 q 319 1121 208 1072 q 557 1169 431 1169 q 794 1121 682 1169 q 990 988 906 1072 q 1122 792 1074 904 q 1171 556 1171 681 m 1103 564 q 1060 774 1103 675 q 942 948 1017 874 q 769 1065 868 1022 q 557 1108 669 1108 q 347 1065 446 1108 q 173 948 247 1022 q 56 774 99 874 q 13 564 13 675 q 56 352 13 451 q 173 178 99 253 q 347 61 247 104 q 557 18 446 18 q 769 61 669 18 q 942 178 868 104 q 1060 352 1017 253 q 1103 564 1103 451 m 1035 564 q 997 378 1035 465 q 894 226 960 292 q 742 124 829 161 q 557 86 656 86 q 372 124 458 86 q 220 226 285 161 q 118 378 156 290 q 81 564 81 465 q 118 748 81 661 q 221 900 156 835 q 372 1003 286 965 q 557 1040 458 1040 q 741 1003 654 1040 q 893 900 828 965 q 997 748 958 835 q 1035 564 1035 661 m 831 665 q 800 738 831 708 q 728 768 769 768 q 656 738 686 768 q 625 665 625 708 q 656 594 625 624 q 728 564 686 564 q 800 594 769 564 q 831 665 831 624 m 489 665 q 459 738 489 708 q 388 768 429 768 q 315 738 344 768 q 285 665 285 708 q 315 594 285 624 q 388 564 344 564 q 459 594 429 564 q 489 665 489 624 m 831 426 l 796 486 l 324 214 l 358 154 l 831 426 z "},"H":{"ha":1329,"x_min":-64,"x_max":1176,"o":"m 1176 557 q 1127 316 1176 429 q 994 119 1078 203 q 797 -14 910 35 q 556 -62 683 -62 q 315 -14 428 -62 q 118 119 203 35 q -15 317 33 204 q -64 557 -64 429 q -15 797 -64 683 q 119 994 35 910 q 315 1128 203 1079 q 556 1178 428 1178 q 797 1128 683 1178 q 994 995 910 1079 q 1127 798 1078 911 q 1176 557 1176 685 m 1107 565 q 1063 778 1107 678 q 944 953 1019 878 q 769 1072 869 1028 q 556 1115 669 1115 q 343 1072 443 1115 q 168 953 243 1028 q 49 778 93 878 q 6 565 6 678 q 49 351 6 451 q 168 176 93 251 q 343 58 243 101 q 556 14 443 14 q 769 57 669 14 q 944 175 869 100 q 1063 351 1019 250 q 1107 565 1107 451 m 1039 565 q 1001 378 1039 465 q 897 224 963 290 q 742 120 831 158 q 556 82 654 82 q 369 120 457 82 q 216 224 282 158 q 112 378 150 290 q 74 565 74 465 q 112 751 74 664 q 216 905 150 839 q 369 1009 282 971 q 556 1047 457 1047 q 743 1009 656 1047 q 897 905 831 971 q 1001 751 963 839 q 1039 565 1039 664 m 832 668 q 801 741 832 711 q 728 771 771 771 q 656 741 686 771 q 625 668 625 711 q 656 595 625 625 q 728 565 686 565 q 801 595 771 565 q 832 668 832 625 m 488 633 l 488 703 l 281 703 l 281 633 l 488 633 m 900 565 l 832 565 q 810 458 832 508 q 750 371 788 408 q 662 311 713 333 q 556 289 611 289 q 449 311 499 289 q 361 371 399 333 q 302 458 324 408 q 281 565 281 508 l 211 565 q 238 432 211 494 q 313 322 265 369 q 422 248 360 275 q 556 221 485 221 q 690 249 628 221 q 799 323 753 276 q 873 432 846 369 q 900 565 900 494 z "},"I":{"ha":1325,"x_min":-62,"x_max":1174,"o":"m 1174 554 q 1124 315 1174 428 q 991 119 1075 203 q 794 -14 907 35 q 556 -62 682 -62 q 316 -14 428 -62 q 119 119 204 35 q -14 315 35 203 q -62 554 -62 426 q -14 794 -62 682 q 119 991 35 907 q 315 1124 203 1075 q 556 1172 428 1172 q 794 1124 682 1172 q 991 990 907 1075 q 1124 793 1075 906 q 1174 554 1174 681 m 1104 563 q 1060 775 1104 675 q 942 949 1017 875 q 768 1067 868 1024 q 556 1111 668 1111 q 343 1068 443 1111 q 168 950 243 1025 q 50 775 93 875 q 7 563 7 675 q 50 350 7 450 q 167 175 93 250 q 342 56 242 100 q 556 13 442 13 q 768 56 668 13 q 942 175 868 100 q 1060 350 1017 250 q 1104 563 1104 450 m 1036 563 q 899 226 1036 365 q 869 357 897 296 q 795 464 842 418 q 687 536 749 510 q 556 563 625 563 q 424 536 486 563 q 316 464 363 510 q 242 357 269 418 q 213 226 214 296 q 75 563 75 365 q 113 750 75 663 q 217 903 151 838 q 370 1006 283 968 q 556 1043 457 1043 q 740 1005 653 1043 q 894 901 828 967 q 998 747 960 835 q 1036 563 1036 660 m 892 219 q 556 82 751 82 q 219 219 358 82 l 281 219 q 302 325 281 275 q 361 413 324 375 q 449 472 399 450 q 556 494 499 494 q 661 472 611 494 q 749 413 711 450 q 808 325 786 375 q 831 219 831 275 l 892 219 m 831 665 q 800 738 831 708 q 728 768 769 768 q 654 738 685 768 q 624 665 624 708 q 654 593 624 624 q 728 563 685 563 q 800 593 769 563 q 831 665 831 624 m 488 631 l 488 700 l 281 700 l 281 631 l 488 631 z "},"J":{"ha":1335,"x_min":-69,"x_max":1183,"o":"m 1183 556 q 1134 313 1183 426 q 999 113 1085 199 q 800 -22 914 28 q 557 -71 686 -71 q 314 -22 428 -71 q 115 113 200 28 q -20 313 29 199 q -69 556 -69 426 q -20 799 -69 685 q 115 998 29 913 q 314 1133 200 1083 q 557 1182 428 1182 q 800 1133 686 1182 q 999 998 914 1083 q 1134 799 1085 913 q 1183 556 1183 685 m 1114 556 q 1069 771 1114 669 q 949 948 1025 872 q 772 1068 874 1024 q 557 1113 671 1113 q 342 1069 443 1113 q 165 949 240 1025 q 44 772 89 874 q 0 556 0 671 q 44 340 0 440 q 164 163 88 239 q 341 42 240 86 q 557 -1 442 -1 q 774 43 672 -1 q 951 163 875 88 q 1070 340 1026 239 q 1114 556 1114 442 m 1044 556 q 1006 367 1044 456 q 901 212 967 278 q 746 107 835 146 q 557 68 657 68 q 368 107 457 68 q 213 212 279 146 q 108 367 147 278 q 69 556 69 456 q 108 744 69 656 q 213 899 147 833 q 368 1004 279 965 q 557 1043 457 1043 q 746 1004 657 1043 q 901 899 835 965 q 1006 744 967 833 q 1044 556 1044 656 m 836 660 q 805 733 836 703 q 731 764 774 764 q 657 733 688 764 q 626 660 626 703 q 657 586 626 617 q 731 556 688 556 q 805 586 774 556 q 836 660 836 617 m 488 625 l 488 694 l 279 694 l 279 625 l 488 625 m 836 346 l 836 417 l 279 417 l 279 346 l 836 346 z "},"K":{"ha":1328,"x_min":-61,"x_max":1178,"o":"m 1178 554 q 1128 314 1178 426 q 995 117 1079 201 q 798 -17 911 32 q 558 -65 685 -65 q 317 -17 431 -65 q 120 116 204 32 q -12 313 36 200 q -61 554 -61 426 q -12 794 -61 681 q 121 991 36 907 q 318 1124 206 1075 q 558 1174 431 1174 q 798 1124 685 1174 q 995 991 911 1075 q 1128 794 1079 907 q 1178 554 1178 681 m 1108 561 q 1065 774 1108 674 q 946 949 1021 874 q 771 1067 871 1024 q 558 1111 671 1111 q 346 1067 446 1111 q 171 949 246 1024 q 52 774 96 874 q 8 561 8 674 q 52 349 8 449 q 171 174 96 249 q 346 55 246 99 q 558 11 446 11 q 771 55 671 11 q 946 174 871 99 q 1065 349 1021 249 q 1108 561 1108 449 m 1039 561 q 1001 376 1039 463 q 899 223 964 289 q 746 119 833 157 q 558 81 658 81 q 371 119 458 81 q 218 222 283 157 q 115 375 153 288 q 76 561 76 463 q 115 749 76 661 q 219 902 153 836 q 372 1006 285 968 q 558 1043 460 1043 q 743 1005 656 1043 q 897 901 831 967 q 1001 747 963 835 q 1039 561 1039 660 m 833 688 q 803 760 833 731 q 731 790 772 790 q 657 760 688 790 q 626 688 626 731 q 657 615 626 644 q 731 585 688 585 q 803 615 772 585 q 833 688 833 644 m 489 653 l 489 722 l 283 722 l 283 653 l 489 653 m 901 493 l 214 493 q 241 359 214 422 q 315 249 268 296 q 424 176 361 203 q 558 149 488 149 q 692 176 629 149 q 801 251 754 204 q 874 360 847 297 q 901 493 901 422 m 825 424 q 788 342 814 379 q 727 276 763 304 q 649 233 692 249 q 558 218 606 218 q 468 233 511 218 q 390 276 425 249 q 328 340 354 303 q 292 424 303 378 l 825 424 z "},"L":{"ha":1329,"x_min":-62,"x_max":1176,"o":"m 1176 556 q 1127 315 1176 428 q 994 118 1078 203 q 797 -15 910 33 q 557 -64 683 -64 q 316 -15 429 -64 q 119 117 203 33 q -14 315 35 201 q -62 556 -62 428 q -14 797 -62 683 q 119 994 35 910 q 316 1127 203 1078 q 557 1176 429 1176 q 797 1127 683 1176 q 994 993 910 1078 q 1127 795 1078 908 q 1176 556 1176 682 m 1108 564 q 1065 776 1108 676 q 946 951 1021 876 q 770 1070 871 1026 q 557 1114 669 1114 q 344 1071 444 1114 q 168 953 243 1028 q 49 778 93 878 q 6 564 6 678 q 49 349 6 449 q 169 174 93 249 q 344 56 244 99 q 557 13 444 13 q 770 56 669 13 q 946 175 871 100 q 1065 350 1021 250 q 1108 564 1108 450 m 1039 564 q 1001 378 1039 465 q 897 224 963 290 q 744 119 832 158 q 557 81 657 81 q 369 119 457 81 q 217 223 282 157 q 113 376 151 289 q 75 564 75 464 q 113 750 75 663 q 217 903 151 838 q 370 1008 282 969 q 557 1046 458 1046 q 744 1007 657 1046 q 897 902 832 968 q 1001 749 963 836 q 1039 564 1039 661 m 832 667 q 802 740 832 710 q 729 769 772 769 q 656 740 686 769 q 626 667 626 710 q 656 594 626 624 q 729 564 686 564 q 802 594 772 564 q 832 667 832 624 m 488 632 l 488 701 l 282 701 l 282 632 l 488 632 m 832 357 l 832 425 l 282 425 l 282 357 l 557 357 q 567 278 557 315 q 596 212 578 240 q 640 167 614 183 q 694 150 665 150 q 749 167 724 150 q 793 213 775 185 q 822 279 811 242 q 832 357 832 317 m 764 357 q 758 310 764 335 q 743 266 753 286 q 721 233 733 246 q 694 219 708 219 q 668 233 681 219 q 647 266 656 246 q 632 310 638 286 q 626 357 626 335 l 764 357 z "},"M":{"ha":1333,"x_min":-67,"x_max":1182,"o":"m 1182 556 q 1133 314 1182 428 q 998 115 1083 200 q 799 -19 913 31 q 557 -68 686 -68 q 315 -19 428 -68 q 117 115 201 31 q -17 313 32 200 q -67 556 -67 426 q -17 798 -67 685 q 117 997 32 911 q 315 1131 201 1082 q 557 1181 429 1181 q 799 1131 685 1181 q 998 997 913 1082 q 1133 797 1083 911 q 1182 556 1182 683 m 1113 556 q 1069 771 1113 669 q 949 948 1025 872 q 772 1067 874 1024 q 557 1111 671 1111 q 342 1067 443 1111 q 166 949 242 1024 q 46 772 90 874 q 1 556 1 671 q 45 340 1 442 q 165 163 89 239 q 342 44 240 88 q 557 0 443 0 q 774 44 672 0 q 950 165 875 89 q 1069 341 1025 240 q 1113 556 1113 442 m 1043 556 q 1005 369 1043 457 q 901 214 967 281 q 747 108 835 147 q 557 69 658 69 q 368 108 457 69 q 213 212 279 146 q 109 367 147 278 q 71 556 71 456 q 110 745 71 657 q 215 899 149 833 q 370 1003 282 965 q 557 1042 458 1042 q 745 1003 657 1042 q 899 898 833 964 q 1004 744 965 832 q 1043 556 1043 656 m 835 660 q 804 733 835 703 q 731 764 774 764 q 657 733 688 764 q 626 660 626 703 q 657 586 626 617 q 731 556 688 556 q 804 586 774 556 q 835 660 835 617 m 488 625 l 488 694 l 279 694 l 279 625 l 488 625 m 765 347 l 765 417 l 349 417 l 349 347 l 418 347 q 428 269 418 307 q 458 203 439 232 q 502 156 476 174 q 557 139 528 139 q 611 156 586 139 q 655 203 636 174 q 685 269 674 232 q 696 347 696 307 l 765 347 m 626 347 q 621 301 626 325 q 606 256 615 276 q 583 222 596 235 q 557 208 571 208 q 532 222 544 208 q 510 255 519 235 q 494 299 500 275 q 488 347 488 324 l 626 347 z "},"N":{"ha":1329,"x_min":-64,"x_max":1176,"o":"m 1176 557 q 1127 317 1176 429 q 994 119 1078 204 q 797 -14 910 35 q 557 -62 683 -62 q 316 -14 429 -62 q 119 119 203 35 q -15 316 35 203 q -64 557 -64 429 q -15 798 -64 685 q 119 995 35 911 q 316 1128 203 1079 q 557 1178 429 1178 q 797 1128 683 1178 q 994 994 910 1079 q 1127 797 1078 910 q 1176 557 1176 683 m 1107 557 q 1063 770 1107 669 q 944 946 1019 871 q 769 1065 869 1021 q 557 1108 669 1108 q 343 1065 443 1108 q 168 946 243 1021 q 49 770 93 871 q 6 557 6 669 q 49 344 6 444 q 167 169 92 244 q 342 49 242 93 q 557 6 442 6 q 771 49 671 6 q 946 168 871 93 q 1064 344 1021 243 q 1107 557 1107 444 m 1039 557 q 1001 370 1039 458 q 897 217 963 282 q 743 113 831 151 q 557 75 656 75 q 369 113 457 75 q 216 217 282 151 q 112 369 150 282 q 74 557 74 457 q 113 744 74 657 q 217 897 151 832 q 371 1001 283 963 q 557 1039 458 1039 q 742 1001 654 1039 q 895 897 829 963 q 1000 744 961 832 q 1039 557 1039 657 m 832 661 q 801 733 832 703 q 729 764 771 764 q 656 733 686 764 q 625 661 625 703 q 656 588 625 618 q 729 557 686 557 q 801 588 771 557 q 832 661 832 618 m 488 661 q 457 733 488 703 q 385 764 426 764 q 311 733 342 764 q 281 661 281 703 q 311 588 281 618 q 385 557 342 557 q 457 588 426 557 q 488 661 488 618 m 793 213 l 315 489 l 281 429 l 758 153 l 793 213 z "},"O":{"ha":1333,"x_min":-71,"x_max":1182,"o":"m 1182 557 q 1133 314 1182 428 q 998 115 1083 200 q 799 -21 913 29 q 556 -71 685 -71 q 312 -21 426 -71 q 113 115 197 29 q -22 314 28 200 q -71 557 -71 428 q -22 799 -71 685 q 113 998 28 913 q 313 1133 199 1083 q 556 1183 426 1183 q 797 1133 683 1183 q 997 998 911 1083 q 1132 799 1082 913 q 1182 557 1182 685 m 1113 557 q 1068 772 1113 671 q 948 949 1024 874 q 771 1069 872 1025 q 556 1114 669 1114 q 340 1070 442 1114 q 163 951 239 1026 q 43 774 88 875 q -1 557 -1 672 q 42 340 -1 442 q 162 163 86 239 q 339 42 238 86 q 556 -1 440 -1 q 772 43 671 -1 q 949 164 874 88 q 1069 342 1025 240 q 1113 557 1113 443 m 1043 557 q 1005 368 1043 457 q 900 213 967 279 q 744 108 833 147 q 556 69 656 69 q 367 108 456 69 q 211 213 278 147 q 106 368 144 279 q 68 557 68 457 q 107 745 68 657 q 213 900 146 833 q 367 1005 279 967 q 556 1043 456 1043 q 744 1005 656 1043 q 899 900 832 967 q 1004 745 965 833 q 1043 557 1043 657 m 835 661 q 805 733 835 703 q 732 765 775 764 l 822 856 l 772 904 l 625 757 l 651 731 q 625 661 625 700 q 656 588 625 618 q 729 557 686 557 q 803 588 772 557 q 835 661 835 618 m 474 757 l 326 904 l 276 856 l 425 707 l 474 757 m 486 626 l 486 696 l 276 696 l 276 626 l 486 626 m 904 557 l 835 557 q 813 449 835 500 q 752 360 790 399 q 663 300 714 322 q 556 278 613 278 q 448 300 499 278 q 359 360 397 322 q 299 449 321 399 q 276 557 276 500 l 207 557 q 234 421 207 485 q 308 310 261 357 q 419 235 356 263 q 556 208 483 208 q 690 236 626 208 q 801 311 754 264 q 876 422 849 358 q 904 557 904 485 z "},"P":{"ha":1329,"x_min":-67,"x_max":1178,"o":"m 1178 556 q 1128 316 1178 429 q 994 118 1079 203 q 797 -17 910 33 q 556 -67 683 -67 q 315 -17 428 -67 q 117 117 201 32 q -17 315 32 201 q -67 556 -67 428 q -17 797 -67 683 q 118 994 33 910 q 316 1128 203 1079 q 556 1178 429 1178 q 795 1128 682 1178 q 994 994 908 1079 q 1128 795 1079 908 q 1178 556 1178 682 m 1108 556 q 1065 770 1108 669 q 946 946 1021 871 q 770 1065 871 1021 q 556 1108 669 1108 q 342 1065 443 1108 q 166 946 242 1021 q 47 770 90 871 q 3 556 3 669 q 47 341 3 442 q 165 165 90 240 q 341 47 240 90 q 556 3 442 3 q 770 47 669 3 q 946 166 871 90 q 1065 342 1021 242 q 1108 556 1108 443 m 1039 556 q 901 217 1039 358 q 872 349 900 288 q 797 457 844 411 q 688 529 750 503 q 556 556 625 556 q 424 529 486 556 q 314 457 361 503 q 239 349 267 411 q 210 217 211 288 q 72 556 72 358 q 110 742 72 654 q 215 897 149 831 q 368 1001 281 963 q 556 1039 456 1039 q 742 1001 654 1039 q 897 897 831 963 q 1001 742 963 831 q 1039 556 1039 654 m 894 210 q 556 72 753 72 q 217 210 358 72 l 279 210 q 301 316 279 265 q 361 404 324 367 q 449 464 399 442 q 556 486 499 486 q 661 464 611 486 q 749 403 711 442 q 810 315 788 365 q 832 210 832 265 l 894 210 m 832 660 q 802 732 832 701 q 731 763 772 763 l 821 853 l 771 901 l 625 754 l 651 728 q 625 660 625 700 q 656 586 625 617 q 728 556 686 556 q 801 586 771 556 q 832 660 832 617 m 475 754 l 328 901 l 279 853 l 425 706 l 475 754 m 486 625 l 486 694 l 279 694 l 279 625 l 486 625 z "},"Q":{"ha":1328,"x_min":-60,"x_max":1175,"o":"m 1175 556 q 1126 316 1175 428 q 992 119 1076 204 q 796 -14 908 35 q 557 -62 683 -62 q 317 -14 429 -62 q 122 119 206 35 q -11 316 38 204 q -60 556 -60 428 q -11 794 -60 682 q 122 991 38 907 q 318 1124 206 1075 q 557 1174 431 1174 q 795 1124 683 1174 q 992 990 907 1075 q 1126 794 1076 906 q 1175 556 1175 682 m 1107 556 q 1063 768 1107 668 q 944 942 1019 868 q 769 1060 869 1017 q 557 1104 669 1104 q 344 1060 444 1104 q 170 942 244 1017 q 52 768 96 868 q 8 556 8 668 q 52 343 8 443 q 170 169 96 243 q 344 51 244 94 q 557 7 444 7 q 769 50 669 7 q 944 168 869 93 q 1063 343 1019 243 q 1107 556 1107 443 m 1038 556 q 1000 370 1038 457 q 897 217 963 283 q 744 113 832 151 q 557 75 657 75 q 371 113 458 75 q 218 217 283 151 q 115 369 153 282 q 76 556 76 457 q 115 743 76 656 q 219 896 153 831 q 372 999 285 961 q 557 1036 458 1036 q 742 998 654 1036 q 895 894 829 960 q 999 740 961 828 q 1038 556 1038 653 m 832 658 q 803 731 832 700 q 732 761 774 761 l 821 850 l 772 899 l 626 753 l 653 728 q 626 658 626 697 q 656 586 626 617 q 729 556 686 556 q 801 586 771 556 q 832 658 832 617 m 476 753 l 332 899 l 283 850 l 428 704 l 476 753 m 489 625 l 489 693 l 283 693 l 283 625 l 489 625 m 832 350 l 832 418 l 283 418 l 283 350 l 832 350 z "},"R":{"ha":1335,"x_min":-69,"x_max":1183,"o":"m 1183 556 q 1134 313 1183 426 q 999 113 1085 199 q 800 -22 914 28 q 557 -71 686 -71 q 314 -22 428 -71 q 115 113 200 28 q -20 313 29 199 q -69 556 -69 426 q -20 799 -69 685 q 115 998 29 913 q 314 1133 200 1083 q 557 1182 428 1182 q 800 1133 686 1182 q 999 998 914 1083 q 1134 799 1085 913 q 1183 556 1183 685 m 1114 556 q 1069 771 1114 669 q 949 948 1025 872 q 772 1068 874 1024 q 557 1113 671 1113 q 342 1069 443 1113 q 165 949 240 1025 q 44 772 89 874 q 0 556 0 671 q 44 340 0 440 q 164 163 88 239 q 341 42 240 86 q 557 -1 442 -1 q 774 43 672 -1 q 951 163 875 88 q 1070 340 1026 239 q 1114 556 1114 442 m 1044 556 q 1006 367 1044 456 q 901 212 967 278 q 746 107 835 146 q 557 68 657 68 q 368 107 457 68 q 213 212 279 146 q 108 367 147 278 q 69 556 69 456 q 108 744 69 656 q 213 899 147 833 q 368 1004 279 965 q 557 1043 457 1043 q 746 1004 657 1043 q 901 899 835 965 q 1006 744 967 833 q 1044 556 1044 656 m 836 660 q 810 729 836 700 q 744 764 783 758 l 836 854 l 786 904 l 639 756 l 660 736 q 626 660 626 704 q 657 586 626 617 q 731 556 688 556 q 805 586 774 556 q 836 660 836 617 m 488 756 l 340 904 l 290 854 l 439 707 l 488 756 m 488 625 l 488 694 l 279 694 l 279 625 l 488 625 m 906 486 l 208 486 q 235 350 208 414 q 310 239 263 286 q 421 165 357 192 q 557 138 485 138 q 692 165 628 138 q 803 240 756 193 q 878 351 850 288 q 906 486 906 414 m 826 417 q 790 333 815 371 q 728 267 764 294 q 649 223 693 239 q 557 207 604 207 q 466 222 510 207 q 387 266 422 238 q 325 333 351 294 q 288 417 299 371 l 826 417 z "},"S":{"ha":1336,"x_min":-69,"x_max":1185,"o":"m 1185 557 q 1135 314 1185 428 q 999 115 1085 200 q 800 -20 914 29 q 558 -69 686 -69 q 315 -20 429 -69 q 116 114 201 29 q -19 313 31 199 q -69 557 -69 428 q -19 800 -69 686 q 116 999 31 914 q 315 1134 201 1085 q 558 1183 429 1183 q 800 1133 686 1183 q 999 998 914 1083 q 1135 799 1085 913 q 1185 557 1185 685 m 1115 557 q 1071 772 1115 671 q 951 949 1026 874 q 774 1069 875 1025 q 558 1114 672 1114 q 343 1070 444 1114 q 165 951 242 1026 q 44 774 89 875 q 0 557 0 672 q 44 340 0 442 q 164 163 88 239 q 342 44 240 88 q 558 0 443 0 q 775 44 674 0 q 952 165 876 89 q 1072 342 1028 240 q 1115 557 1115 443 m 1044 557 q 1006 369 1044 457 q 901 214 968 281 q 747 108 835 147 q 558 69 658 69 q 369 108 458 69 q 215 213 281 146 q 110 368 149 279 q 71 557 71 457 q 110 746 71 657 q 215 901 149 835 q 369 1006 281 968 q 558 1044 458 1044 q 747 1006 658 1044 q 901 900 835 967 q 1006 745 968 833 q 1044 557 1044 657 m 824 614 l 775 664 l 824 713 l 775 763 l 726 713 l 676 763 l 628 713 l 676 664 l 628 614 l 676 565 l 726 614 l 775 565 l 824 614 m 476 618 l 426 667 l 476 717 l 426 765 l 378 717 l 328 765 l 279 717 l 328 667 l 279 618 l 328 568 l 378 618 l 426 568 l 476 618 m 836 347 l 836 418 l 279 418 l 279 347 l 558 347 q 569 268 558 306 q 598 201 579 231 q 642 156 617 172 q 697 139 668 139 q 751 156 726 139 q 795 203 776 174 q 825 269 814 232 q 836 347 836 307 m 767 347 q 760 299 767 324 q 744 255 754 275 q 722 222 735 235 q 697 208 710 208 q 671 222 683 208 q 649 256 658 235 q 633 301 639 276 q 628 347 628 325 l 767 347 z "},"T":{"ha":1335,"x_min":-69,"x_max":1183,"o":"m 1183 557 q 1134 314 1183 428 q 999 115 1085 200 q 800 -20 914 29 q 557 -69 686 -69 q 314 -20 428 -69 q 115 115 200 29 q -20 314 29 200 q -69 557 -69 428 q -20 800 -69 686 q 115 999 29 914 q 314 1134 200 1085 q 557 1183 428 1183 q 800 1134 686 1183 q 999 999 914 1085 q 1134 800 1085 914 q 1183 557 1183 686 m 1114 557 q 1069 772 1114 671 q 949 949 1025 874 q 772 1069 874 1025 q 557 1114 671 1114 q 342 1070 443 1114 q 165 951 240 1026 q 44 774 89 875 q 0 557 0 672 q 44 341 0 442 q 164 164 88 240 q 341 44 240 88 q 557 0 442 0 q 774 44 672 0 q 951 165 875 89 q 1070 342 1026 240 q 1114 557 1114 443 m 1044 557 q 1006 368 1044 457 q 901 213 967 279 q 746 108 835 147 q 557 69 657 69 q 368 108 457 69 q 213 213 279 146 q 108 368 147 279 q 69 557 69 457 q 108 746 69 657 q 213 901 147 835 q 368 1006 279 968 q 557 1044 457 1044 q 746 1006 657 1044 q 901 901 835 967 q 1006 746 967 835 q 1044 557 1044 657 m 835 661 q 809 730 835 700 q 744 765 783 760 l 835 856 l 786 906 l 639 757 l 658 736 q 626 661 626 704 q 657 588 626 618 q 731 557 688 557 q 804 588 774 557 q 835 661 835 618 m 488 661 q 465 725 488 697 l 488 746 l 339 893 l 290 844 l 369 765 q 304 730 331 760 q 278 661 278 700 q 308 588 278 618 q 382 557 339 557 q 456 588 425 557 q 488 661 488 618 m 765 347 l 765 418 l 347 418 l 347 347 l 417 347 q 428 269 417 307 q 458 203 439 232 q 502 156 476 174 q 557 139 528 139 q 611 156 586 139 q 655 203 636 174 q 685 269 674 232 q 696 347 696 307 l 765 347 m 626 347 q 620 299 626 324 q 604 255 614 275 q 582 222 594 235 q 557 208 569 208 q 531 222 543 208 q 508 256 518 235 q 493 301 499 276 q 488 347 488 325 l 626 347 z "},"U":{"ha":1333,"x_min":-67,"x_max":1182,"o":"m 1182 556 q 1133 314 1182 428 q 998 115 1083 200 q 799 -19 913 31 q 557 -68 686 -68 q 315 -19 428 -68 q 117 115 201 31 q -17 313 32 200 q -67 556 -67 426 q -17 798 -67 685 q 117 997 32 911 q 315 1131 201 1082 q 557 1181 429 1181 q 799 1131 685 1181 q 998 997 913 1082 q 1133 797 1083 911 q 1182 556 1182 683 m 1113 556 q 1069 771 1113 669 q 949 948 1025 872 q 772 1067 874 1024 q 557 1111 671 1111 q 342 1067 443 1111 q 166 949 242 1024 q 46 772 90 874 q 1 556 1 671 q 45 340 1 442 q 165 163 89 239 q 342 44 240 88 q 557 0 443 0 q 774 44 672 0 q 950 165 875 89 q 1069 341 1025 240 q 1113 556 1113 442 m 1043 556 q 1005 369 1043 457 q 901 214 967 281 q 747 108 835 147 q 557 69 658 69 q 368 108 457 69 q 213 212 279 146 q 109 367 147 278 q 71 556 71 456 q 110 745 71 657 q 215 899 149 833 q 370 1003 282 965 q 557 1042 458 1042 q 745 1003 657 1042 q 899 898 833 964 q 1004 744 965 832 q 1043 556 1043 656 m 974 656 q 959 722 974 690 q 921 776 944 753 q 866 812 897 799 q 800 825 835 825 q 734 812 765 825 q 678 776 703 799 q 640 722 654 753 q 626 656 626 690 q 640 589 626 619 q 678 535 654 558 q 733 499 701 513 q 800 486 764 486 q 867 499 835 486 q 922 535 899 513 q 960 589 946 558 q 974 656 974 619 m 688 417 l 688 486 l 426 486 l 426 417 l 688 417 m 418 590 q 388 664 418 633 q 314 694 357 694 q 240 664 271 694 q 210 590 210 633 q 240 517 210 547 q 314 486 271 486 q 388 517 357 486 q 418 590 418 547 m 886 656 q 860 596 886 621 q 800 571 835 571 q 739 596 764 571 q 714 656 714 621 q 739 716 714 692 q 800 740 764 740 q 860 716 835 740 q 886 656 886 692 m 367 590 q 351 554 367 569 q 314 539 336 539 q 278 554 293 539 q 263 590 263 569 q 278 627 263 611 q 314 643 293 643 q 351 627 336 643 q 367 590 367 611 z "},"V":{"ha":1329,"x_min":-62,"x_max":1176,"o":"m 1176 557 q 1127 317 1176 429 q 994 119 1078 204 q 797 -15 910 35 q 557 -64 683 -64 q 316 -15 429 -64 q 119 119 203 35 q -14 316 35 203 q -62 557 -62 429 q -14 797 -62 683 q 119 994 35 910 q 317 1127 204 1078 q 557 1176 429 1176 q 797 1127 683 1176 q 994 994 910 1078 q 1127 797 1078 910 q 1176 557 1176 683 m 1104 561 q 1060 774 1104 674 q 942 949 1017 874 q 767 1067 867 1024 q 553 1111 667 1111 q 340 1068 440 1111 q 164 950 239 1025 q 45 775 89 875 q 1 561 1 675 q 45 346 1 446 q 165 171 89 246 q 340 53 240 96 q 553 10 440 10 q 767 53 667 10 q 942 171 867 96 q 1060 347 1017 246 q 1104 561 1104 447 m 1035 561 q 997 375 1035 463 q 893 222 958 288 q 740 117 828 156 q 553 78 653 78 q 367 116 454 78 q 213 220 279 154 q 109 374 147 286 q 71 561 71 461 q 109 747 71 660 q 213 901 147 835 q 367 1005 279 967 q 553 1043 454 1043 q 740 1004 653 1043 q 893 899 828 965 q 997 746 958 833 q 1035 561 1035 658 m 829 664 q 803 732 829 703 q 739 767 778 761 l 829 856 l 781 906 l 633 758 l 654 739 q 622 664 622 707 q 653 591 622 621 q 725 561 683 561 q 799 591 768 561 q 829 664 829 621 m 485 664 q 458 732 485 704 l 485 758 l 338 906 l 289 856 l 379 767 q 307 736 336 767 q 278 664 278 706 q 308 591 278 621 q 381 561 339 561 q 454 591 424 561 q 485 664 485 621 m 897 561 l 829 561 q 807 454 829 504 q 747 367 785 404 q 659 307 710 329 q 553 285 608 285 q 446 307 496 285 q 358 367 396 329 q 299 454 321 404 q 278 561 278 504 l 208 561 q 235 428 208 490 q 310 318 263 365 q 419 244 357 271 q 553 217 482 217 q 688 244 625 217 q 797 319 750 272 q 870 428 843 365 q 897 561 897 490 z "},"W":{"ha":1331,"x_min":-68,"x_max":1179,"o":"m 1179 556 q 1130 315 1179 428 q 997 116 1081 201 q 799 -19 913 31 q 556 -68 685 -68 q 313 -19 426 -68 q 115 115 200 31 q -19 313 31 200 q -68 556 -68 426 q -19 799 -68 685 q 116 997 31 913 q 315 1130 201 1081 q 556 1179 428 1179 q 797 1130 683 1179 q 996 995 911 1081 q 1130 797 1081 910 q 1179 556 1179 683 m 1107 558 q 1063 774 1107 674 q 942 950 1018 875 q 766 1069 867 1025 q 553 1113 665 1113 q 338 1069 439 1113 q 162 950 238 1025 q 42 774 86 875 q -1 558 -1 674 q 42 342 -1 443 q 161 167 86 242 q 337 48 236 92 q 553 4 438 4 q 767 48 667 4 q 944 167 868 92 q 1063 344 1019 243 q 1107 558 1107 444 m 1038 558 q 899 219 1038 360 q 869 352 897 290 q 794 460 842 414 q 685 532 747 506 q 553 558 622 558 q 419 532 482 558 q 310 460 357 506 q 235 352 263 414 q 206 219 207 290 q 67 558 67 360 q 106 748 67 660 q 211 902 144 836 q 366 1006 278 968 q 553 1044 454 1044 q 740 1006 651 1044 q 894 901 828 967 q 999 747 960 835 q 1038 558 1038 658 m 892 213 q 553 74 751 74 q 213 213 353 74 l 275 213 q 297 320 275 269 q 357 408 319 371 q 445 468 394 446 q 553 490 496 490 q 659 468 608 490 q 747 408 710 446 q 807 319 785 369 q 829 213 829 268 l 892 213 m 829 663 q 803 731 829 701 q 739 765 778 761 l 829 857 l 781 906 l 633 758 l 654 738 q 621 663 621 706 q 651 589 621 619 q 725 558 682 558 q 799 589 768 558 q 829 663 829 619 m 483 663 q 457 732 483 704 l 483 758 l 336 906 l 288 857 l 376 767 q 305 735 335 765 q 275 663 275 706 q 306 589 275 619 q 379 558 336 558 q 453 589 422 558 q 483 663 483 619 z "},"X":{"ha":1331,"x_min":-62,"x_max":1178,"o":"m 1178 556 q 1128 315 1178 428 q 995 117 1079 201 q 798 -15 911 33 q 557 -64 685 -64 q 317 -15 429 -64 q 119 118 204 33 q -14 315 35 203 q -62 556 -62 428 q -13 795 -62 682 q 120 993 36 908 q 317 1127 204 1078 q 557 1176 429 1176 q 798 1127 685 1176 q 995 994 911 1078 q 1128 797 1079 910 q 1178 556 1178 683 m 1104 560 q 1060 773 1104 672 q 942 949 1017 874 q 767 1067 867 1024 q 554 1111 667 1111 q 340 1067 440 1111 q 165 949 240 1024 q 47 773 90 874 q 3 560 3 672 q 46 347 3 447 q 164 172 89 247 q 339 52 239 96 q 554 8 439 8 q 768 52 668 8 q 943 171 868 96 q 1061 347 1018 246 q 1104 560 1104 447 m 1036 560 q 998 373 1036 461 q 894 219 960 285 q 740 116 828 154 q 554 78 653 78 q 367 116 454 78 q 213 219 279 154 q 109 372 147 285 q 71 560 71 460 q 110 747 71 660 q 215 900 149 835 q 368 1003 281 965 q 554 1042 456 1042 q 739 1003 651 1042 q 892 900 826 965 q 997 747 958 835 q 1036 560 1036 660 m 829 663 q 803 731 829 701 q 739 765 778 760 l 829 856 l 781 904 l 635 758 l 654 738 q 622 663 622 706 q 653 590 622 621 q 726 560 683 560 q 799 590 768 560 q 829 663 829 621 m 485 663 q 458 732 485 704 l 485 758 l 339 904 l 290 856 l 379 767 q 308 735 338 765 q 278 663 278 704 q 308 590 278 621 q 382 560 339 560 q 454 590 424 560 q 485 663 485 621 m 899 353 l 899 422 l 210 422 l 210 353 l 899 353 z "},"Y":{"ha":1335,"x_min":-65,"x_max":1183,"o":"m 1183 556 q 1134 314 1183 428 q 999 115 1085 200 q 800 -20 914 29 q 558 -69 686 -69 q 317 -20 431 -69 q 118 115 203 29 q -16 313 33 200 q -65 556 -65 426 q -16 799 -65 685 q 119 997 33 913 q 317 1130 204 1081 q 558 1179 431 1179 q 799 1130 686 1179 q 998 996 913 1081 q 1133 797 1083 911 q 1183 556 1183 683 m 1110 560 q 1066 774 1110 674 q 947 951 1022 875 q 769 1070 871 1026 q 554 1114 668 1114 q 340 1070 440 1114 q 163 951 239 1026 q 44 774 88 875 q 0 560 0 674 q 44 344 0 444 q 163 167 88 243 q 340 48 239 92 q 554 4 440 4 q 769 48 668 4 q 947 167 871 92 q 1066 344 1022 243 q 1110 560 1110 444 m 1040 560 q 1002 373 1040 461 q 898 218 964 285 q 744 113 832 151 q 554 74 656 74 q 366 112 454 74 q 212 216 278 150 q 108 371 146 282 q 69 560 69 460 q 108 748 69 660 q 213 902 147 836 q 367 1006 279 968 q 554 1044 456 1044 q 742 1006 654 1044 q 897 901 831 967 q 1001 747 963 835 q 1040 560 1040 658 m 832 686 q 809 751 832 722 q 751 788 786 779 l 832 868 l 783 917 l 636 771 l 650 756 q 624 686 624 728 q 654 613 624 643 q 728 582 685 582 q 801 613 771 582 q 832 686 832 643 m 485 686 q 469 743 485 715 l 485 758 l 338 906 l 289 857 l 358 788 q 300 751 322 781 q 278 686 278 722 q 308 613 278 643 q 381 582 339 582 q 454 613 424 582 q 485 686 485 643 m 901 490 l 208 490 q 235 356 208 419 q 310 246 263 293 q 420 171 357 199 q 554 143 483 143 q 688 170 625 143 q 799 244 751 197 q 874 355 846 292 q 901 490 901 418 m 824 421 q 786 337 813 375 q 724 271 760 299 q 645 228 689 243 q 554 213 601 213 q 464 228 507 213 q 385 271 421 243 q 323 337 349 299 q 286 421 297 375 l 824 421 z "},"Z":{"ha":1328,"x_min":-64,"x_max":1175,"o":"m 1175 556 q 1126 315 1175 428 q 992 119 1076 203 q 795 -15 908 35 q 556 -64 682 -64 q 315 -15 428 -64 q 118 118 203 33 q -15 315 33 203 q -64 556 -64 428 q -15 797 -64 683 q 117 994 33 910 q 315 1127 201 1078 q 556 1176 428 1176 q 795 1127 682 1176 q 992 993 908 1078 q 1126 795 1076 908 q 1175 556 1175 682 m 1103 560 q 1059 773 1103 672 q 940 949 1015 874 q 765 1067 865 1024 q 551 1111 664 1111 q 339 1068 439 1111 q 163 950 239 1025 q 44 774 88 875 q 0 560 0 674 q 44 346 0 446 q 163 171 88 246 q 338 52 238 96 q 551 8 438 8 q 766 52 665 8 q 942 172 867 96 q 1060 347 1017 247 q 1103 560 1103 447 m 1033 560 q 996 374 1033 461 q 892 220 958 286 q 739 116 826 154 q 551 78 651 78 q 365 116 453 78 q 211 219 276 154 q 108 373 146 285 q 69 560 69 461 q 108 747 69 660 q 212 901 146 835 q 365 1004 278 967 q 551 1042 453 1042 q 738 1003 650 1042 q 891 899 825 965 q 995 746 957 833 q 1033 560 1033 658 m 828 629 l 828 697 l 621 697 l 621 629 l 828 629 m 483 629 l 483 697 l 276 697 l 276 629 l 483 629 m 828 353 l 828 422 l 276 422 l 276 353 l 551 353 q 562 277 551 314 q 591 211 572 240 q 635 165 610 182 q 689 147 660 147 q 744 165 719 147 q 788 211 769 182 q 817 277 807 240 q 828 353 828 314 m 758 353 q 753 308 758 332 q 738 264 747 285 q 716 229 729 243 q 689 215 703 215 q 663 229 675 215 q 641 264 650 243 q 626 308 632 285 q 621 353 621 332 l 758 353 z "},"[":{"ha":1328,"x_min":-64,"x_max":1176,"o":"m 1176 553 q 1127 313 1176 425 q 994 116 1078 200 q 797 -17 910 32 q 557 -67 683 -67 q 317 -17 429 -67 q 119 116 204 32 q -15 313 35 200 q -64 553 -64 425 q -15 794 -64 681 q 119 991 35 907 q 316 1124 203 1075 q 557 1174 429 1174 q 797 1124 683 1174 q 994 990 910 1075 q 1127 792 1078 906 q 1176 553 1176 679 m 1104 557 q 1060 770 1104 669 q 942 946 1017 871 q 766 1065 867 1021 q 553 1108 665 1108 q 340 1065 440 1108 q 165 947 240 1022 q 45 772 89 872 q 1 557 1 671 q 45 343 1 443 q 164 168 89 243 q 339 49 239 93 q 553 6 439 6 q 767 50 667 6 q 943 169 868 94 q 1061 344 1018 244 q 1104 557 1104 444 m 1035 557 q 997 371 1035 458 q 893 218 958 283 q 740 114 828 153 q 553 75 653 75 q 365 113 453 75 q 213 217 278 151 q 109 369 147 282 q 71 557 71 457 q 109 744 71 657 q 213 898 147 832 q 367 1001 279 964 q 553 1039 454 1039 q 739 1001 651 1039 q 892 897 826 963 q 997 743 958 831 q 1035 557 1035 656 m 828 661 q 802 729 828 700 q 739 763 776 758 l 828 853 l 779 901 l 633 756 l 654 735 q 622 661 622 703 q 652 588 622 618 q 725 557 682 557 q 798 588 768 557 q 828 661 828 618 m 483 661 q 457 729 483 701 l 483 756 l 338 901 l 289 853 l 378 764 q 307 733 336 763 q 278 661 278 703 q 308 588 278 618 q 381 557 338 557 q 453 588 424 557 q 483 661 483 618 m 897 419 l 897 489 l 208 489 l 208 419 l 278 419 l 346 282 l 415 419 l 690 419 l 760 282 l 828 419 l 897 419 z "},"\\":{"ha":1329,"x_min":-62,"x_max":1176,"o":"m 1176 558 q 1127 318 1176 431 q 994 121 1078 206 q 797 -13 910 36 q 557 -62 683 -62 q 316 -13 429 -62 q 119 120 203 36 q -14 317 35 204 q -62 558 -62 431 q -14 798 -62 685 q 119 995 35 911 q 317 1128 204 1079 q 557 1178 429 1178 q 797 1128 683 1178 q 994 995 910 1079 q 1127 798 1078 911 q 1176 558 1176 685 m 1108 565 q 1065 778 1108 678 q 945 953 1021 878 q 769 1073 869 1029 q 557 1117 669 1117 q 344 1074 444 1117 q 169 956 244 1031 q 50 780 94 881 q 6 565 6 679 q 49 351 6 451 q 168 176 93 251 q 343 58 243 101 q 557 14 443 14 q 772 58 671 14 q 947 178 872 103 q 1065 353 1022 253 q 1108 565 1108 453 m 1039 565 q 1001 379 1039 467 q 898 226 964 292 q 744 122 832 160 q 557 83 657 83 q 369 122 457 83 q 217 225 282 160 q 113 378 151 290 q 75 565 75 465 q 113 753 75 665 q 217 906 151 840 q 371 1010 283 972 q 557 1047 458 1047 q 743 1009 656 1047 q 897 905 831 971 q 1001 751 963 839 q 1039 565 1039 664 m 832 668 q 802 742 832 711 q 729 772 772 772 q 656 742 686 772 q 626 668 626 711 q 656 596 626 626 q 729 565 686 565 q 802 596 772 565 q 832 668 832 626 m 488 668 q 458 742 488 711 q 385 772 428 772 q 312 742 342 772 q 282 668 282 711 q 312 596 282 626 q 385 565 342 565 q 458 596 428 565 q 488 668 488 626 m 832 428 l 799 488 l 321 211 l 356 151 l 832 428 z "},"]":{"ha":1332,"x_min":-72,"x_max":1176,"o":"m 1176 553 q 1127 312 1176 425 q 993 113 1078 199 q 794 -22 908 28 q 553 -72 681 -72 q 310 -23 424 -72 q 112 112 197 26 q -23 310 26 197 q -72 553 -72 424 q 67 946 -72 774 l 67 1386 l 379 1153 q 553 1178 464 1178 q 725 1153 639 1178 l 1038 1386 l 1038 946 q 1176 553 1176 774 m 1111 553 q 967 928 1111 767 l 983 1246 l 733 1079 q 556 1108 647 1108 q 368 1075 457 1108 l 140 1247 l 140 919 q 1 553 1 764 q 45 337 1 438 q 165 160 89 236 q 341 41 240 85 q 556 -3 442 -3 q 771 41 669 -3 q 948 160 872 85 q 1067 337 1024 236 q 1111 553 1111 438 m 1042 553 q 1003 366 1042 454 q 899 211 965 278 q 745 106 833 144 q 556 67 657 67 q 367 105 456 67 q 213 209 279 143 q 109 364 147 275 q 71 553 71 453 q 110 742 71 654 q 215 897 149 831 q 369 1001 281 963 q 556 1039 457 1039 q 744 1000 656 1039 q 898 895 832 961 q 1003 741 964 829 q 1042 553 1042 653 m 833 668 q 811 734 833 706 q 753 769 789 763 l 833 850 l 785 900 l 638 753 l 651 738 q 625 668 625 710 q 656 596 625 626 q 729 565 686 565 q 803 596 772 565 q 833 668 833 626 m 486 668 q 471 725 486 697 l 486 742 l 339 889 l 290 839 l 360 771 q 301 734 324 763 q 278 668 278 706 q 309 596 278 626 q 382 565 340 565 q 456 596 425 565 q 486 668 486 626 m 903 472 l 208 472 q 235 337 208 400 q 310 226 263 274 q 420 152 357 179 q 556 125 483 125 q 690 152 626 125 q 800 226 753 179 q 875 337 847 274 q 903 472 903 400 m 825 403 q 788 319 814 357 q 726 253 761 281 q 647 210 690 225 q 556 194 603 194 q 465 210 508 194 q 386 253 422 225 q 324 319 350 281 q 288 403 299 357 l 347 403 l 417 264 l 486 403 l 625 403 l 694 264 l 764 403 l 825 403 z "},"^":{"ha":1328,"x_min":-64,"x_max":1176,"o":"m 1176 556 q 1127 315 1176 428 q 994 117 1078 201 q 797 -16 910 33 q 556 -65 683 -65 q 315 -16 428 -65 q 119 118 203 33 q -15 315 35 203 q -64 556 -64 428 q -15 795 -64 682 q 119 992 35 908 q 315 1126 203 1076 q 556 1175 428 1175 q 795 1126 682 1175 q 993 992 908 1076 q 1127 795 1078 908 q 1176 556 1176 682 m 1103 560 q 1059 772 1103 672 q 940 947 1015 872 q 765 1066 865 1022 q 553 1110 665 1110 q 339 1066 439 1110 q 164 947 239 1022 q 45 772 89 872 q 1 560 1 672 q 44 345 1 446 q 163 169 88 244 q 338 51 238 94 q 553 8 439 8 q 765 52 665 8 q 940 171 865 96 q 1059 346 1015 246 q 1103 560 1103 446 m 1035 560 q 997 372 1035 460 q 892 219 958 285 q 739 115 826 153 q 553 76 651 76 q 365 115 453 76 q 212 219 278 153 q 108 372 146 285 q 69 560 69 460 q 108 746 69 658 q 212 899 146 833 q 365 1003 278 965 q 553 1042 453 1042 q 739 1003 651 1042 q 892 899 826 965 q 997 746 958 833 q 1035 560 1035 658 m 897 628 q 887 706 897 668 q 858 772 876 743 q 813 817 839 800 q 758 835 788 835 q 704 817 729 835 q 660 772 679 800 q 631 706 642 743 q 621 628 621 668 l 690 628 q 696 674 690 650 q 710 719 701 699 q 732 752 719 739 q 758 765 744 765 q 785 752 772 765 q 807 719 797 739 q 822 674 817 699 q 828 628 828 650 l 897 628 m 483 628 q 473 706 483 668 q 444 772 463 743 q 401 817 426 800 q 346 835 375 835 q 290 817 315 835 q 247 772 265 800 q 219 706 229 743 q 208 628 208 668 l 276 628 q 282 674 276 650 q 297 719 288 699 q 319 752 307 739 q 346 765 332 765 q 372 752 360 765 q 393 719 383 739 q 408 674 403 699 q 414 628 414 650 l 483 628 m 758 353 l 758 421 l 346 421 l 346 353 l 758 353 z "},"_":{"ha":1333,"x_min":-67,"x_max":1182,"o":"m 1182 556 q 1133 314 1182 428 q 998 115 1083 200 q 799 -19 913 31 q 557 -68 686 -68 q 315 -19 428 -68 q 117 115 201 31 q -17 313 32 200 q -67 556 -67 426 q -17 798 -67 685 q 117 997 32 911 q 315 1131 201 1082 q 557 1181 429 1181 q 799 1131 685 1181 q 998 997 913 1082 q 1133 797 1083 911 q 1182 556 1182 683 m 1113 556 q 1069 771 1113 669 q 949 948 1025 872 q 772 1067 874 1024 q 557 1111 671 1111 q 342 1067 443 1111 q 166 949 242 1024 q 46 772 90 874 q 1 556 1 671 q 45 340 1 442 q 165 163 89 239 q 342 44 240 88 q 557 0 443 0 q 774 44 672 0 q 950 165 875 89 q 1069 341 1025 240 q 1113 556 1113 442 m 1043 556 q 1005 369 1043 457 q 901 214 967 281 q 747 108 835 147 q 557 69 658 69 q 368 108 457 69 q 213 212 279 146 q 109 367 147 278 q 71 556 71 456 q 110 745 71 657 q 215 899 149 833 q 370 1003 282 965 q 557 1042 458 1042 q 745 1003 657 1042 q 899 898 833 964 q 1004 744 965 832 q 1043 556 1043 656 m 974 656 q 959 722 974 690 q 921 776 944 753 q 866 812 897 799 q 800 825 835 825 q 734 812 765 825 q 678 776 703 799 q 640 722 654 753 q 626 656 626 690 q 640 589 626 619 q 678 535 654 558 q 733 499 701 513 q 800 486 764 486 q 867 499 835 486 q 922 535 899 513 q 960 589 946 558 q 974 656 974 619 m 688 417 l 688 486 l 426 486 l 426 417 l 688 417 m 418 590 q 388 664 418 633 q 314 694 357 694 q 240 664 271 694 q 210 590 210 633 q 240 517 210 547 q 314 486 271 486 q 388 517 357 486 q 418 590 418 547 m 886 656 q 860 596 886 621 q 800 571 835 571 q 739 596 764 571 q 714 656 714 621 q 739 716 714 692 q 800 740 764 740 q 860 716 835 740 q 886 656 886 692 m 367 590 q 351 554 367 569 q 314 539 336 539 q 278 554 293 539 q 263 590 263 569 q 278 627 263 611 q 314 643 293 643 q 351 627 336 643 q 367 590 367 611 z "},"`":{"ha":664,"x_min":0,"x_max":0,"o":""},"a":{"ha":1329,"x_min":-64,"x_max":1176,"o":"m 1176 556 q 1127 315 1176 428 q 994 119 1078 203 q 797 -15 910 35 q 557 -64 683 -64 q 317 -15 429 -64 q 119 119 204 35 q -15 315 35 203 q -64 556 -64 428 q -15 797 -64 683 q 119 994 35 910 q 316 1127 203 1078 q 557 1176 429 1176 q 797 1127 683 1176 q 994 993 910 1078 q 1127 795 1078 908 q 1176 556 1176 682 m 1104 560 q 1060 772 1104 672 q 941 948 1017 872 q 765 1067 865 1024 q 553 1111 665 1111 q 340 1068 440 1111 q 165 950 240 1025 q 45 774 89 875 q 1 560 1 674 q 45 346 1 446 q 164 171 89 246 q 339 52 239 96 q 553 8 439 8 q 767 53 667 8 q 943 172 868 97 q 1061 347 1018 247 q 1104 560 1104 447 m 1035 560 q 997 374 1035 461 q 894 220 960 286 q 740 116 828 154 q 553 78 653 78 q 365 116 453 78 q 213 219 278 154 q 109 372 147 285 q 71 560 71 460 q 109 747 71 660 q 213 901 147 835 q 367 1004 279 967 q 553 1042 454 1042 q 739 1003 651 1042 q 892 899 826 965 q 997 746 958 833 q 1035 560 1035 658 m 828 629 l 828 697 l 622 697 l 622 629 l 828 629 m 483 629 l 483 697 l 278 697 l 278 629 l 483 629 m 760 353 l 760 422 l 346 422 l 346 353 l 415 353 q 426 276 415 313 q 454 210 436 239 q 498 165 472 182 q 553 147 524 147 q 608 165 582 147 q 651 210 633 182 q 680 276 669 239 q 690 353 690 313 l 760 353 m 622 353 q 617 309 622 333 q 601 264 611 285 q 579 229 592 243 q 553 215 567 215 q 526 229 539 215 q 504 264 514 243 q 489 309 494 285 q 483 353 483 333 l 622 353 z "},"b":{"ha":1331,"x_min":-62,"x_max":1178,"o":"m 1178 556 q 1128 315 1178 428 q 995 118 1079 203 q 798 -16 911 33 q 558 -65 685 -65 q 317 -16 431 -65 q 120 117 204 33 q -13 315 36 201 q -62 556 -62 428 q -13 795 -62 682 q 121 992 36 908 q 318 1126 206 1076 q 558 1175 431 1175 q 798 1126 685 1175 q 995 992 911 1076 q 1128 795 1079 908 q 1178 556 1178 682 m 1106 560 q 1062 772 1106 672 q 943 947 1018 872 q 767 1066 868 1022 q 554 1110 667 1110 q 341 1067 442 1110 q 165 949 240 1024 q 47 774 90 874 q 3 560 3 674 q 47 344 3 444 q 166 169 90 244 q 342 51 242 94 q 554 8 442 8 q 767 52 667 8 q 943 171 868 96 q 1062 346 1018 246 q 1106 560 1106 446 m 1036 560 q 998 374 1036 461 q 894 220 960 286 q 742 115 829 154 q 554 76 654 76 q 367 115 454 76 q 214 219 279 153 q 110 372 149 285 q 72 560 72 460 q 110 746 72 658 q 214 899 149 833 q 367 1003 279 965 q 554 1042 456 1042 q 742 1003 654 1042 q 894 898 829 964 q 998 744 960 832 q 1036 560 1036 657 m 829 628 l 829 697 l 622 697 l 622 628 l 829 628 m 485 628 l 485 697 l 278 697 l 278 628 l 485 628 m 692 353 l 692 421 l 417 421 l 417 353 l 692 353 z "},"c":{"ha":1329,"x_min":-64,"x_max":1176,"o":"m 1176 557 q 1127 317 1176 429 q 994 119 1078 204 q 797 -15 910 35 q 557 -64 683 -64 q 316 -15 429 -64 q 119 119 203 35 q -15 316 35 203 q -64 557 -64 429 q -15 797 -64 683 q 119 994 35 910 q 317 1127 204 1078 q 557 1176 429 1176 q 797 1127 683 1176 q 994 994 910 1078 q 1127 797 1078 910 q 1176 557 1176 683 m 1104 561 q 1060 774 1104 674 q 942 949 1017 874 q 766 1067 867 1024 q 553 1111 665 1111 q 340 1068 440 1111 q 164 950 239 1025 q 45 775 89 875 q 1 561 1 675 q 45 346 1 446 q 165 171 89 246 q 340 53 240 96 q 553 10 440 10 q 766 53 665 10 q 942 172 867 97 q 1060 347 1017 247 q 1104 561 1104 447 m 1035 561 q 997 375 1035 463 q 893 222 958 288 q 740 117 828 156 q 553 78 653 78 q 365 116 453 78 q 213 220 278 154 q 109 374 147 286 q 71 561 71 461 q 109 747 71 660 q 213 901 147 835 q 366 1005 278 967 q 553 1043 454 1043 q 740 1004 653 1043 q 893 899 828 965 q 997 746 958 833 q 1035 561 1035 658 m 828 815 l 682 963 l 633 914 l 779 767 l 828 815 m 828 664 q 798 737 828 707 q 725 767 768 767 q 652 737 682 767 q 622 664 622 707 q 652 591 622 621 q 725 561 682 561 q 798 591 768 561 q 828 664 828 621 m 483 914 l 435 963 l 289 815 l 338 767 l 483 914 m 483 664 q 453 737 483 707 q 381 767 424 767 q 308 737 338 767 q 278 664 278 707 q 308 591 278 621 q 381 561 338 561 q 453 591 424 561 q 483 664 483 621 m 897 561 l 828 561 q 806 454 828 504 q 747 367 785 404 q 660 307 710 329 q 553 285 610 285 q 446 307 496 285 q 358 367 396 329 q 299 454 321 404 q 278 561 278 504 l 208 561 q 235 427 208 490 q 309 317 263 364 q 419 244 356 271 q 553 217 482 217 q 688 244 625 217 q 797 319 750 272 q 870 428 843 365 q 897 561 897 490 z "},"d":{"ha":1336,"x_min":-74,"x_max":1185,"o":"m 1185 556 q 1135 312 1185 426 q 999 112 1085 197 q 799 -24 913 26 q 556 -74 685 -74 q 312 -24 426 -74 q 112 112 197 26 q -24 312 26 197 q -74 556 -74 426 q -24 799 -74 685 q 112 999 26 913 q 312 1135 197 1085 q 556 1185 426 1185 q 799 1135 685 1185 q 999 999 913 1085 q 1135 799 1085 913 q 1185 556 1185 685 m 1114 556 q 1069 772 1114 669 q 949 949 1025 874 q 772 1069 874 1025 q 556 1114 669 1114 q 340 1070 442 1114 q 163 951 239 1026 q 42 773 86 875 q -3 556 -3 671 q 41 338 -3 440 q 160 160 85 236 q 338 41 236 85 q 556 -3 440 -3 q 773 42 671 -3 q 951 163 875 86 q 1070 340 1026 239 q 1114 556 1114 442 m 1044 556 q 904 213 1044 357 q 875 346 903 283 q 800 455 847 408 q 690 528 753 501 q 556 556 626 556 q 422 528 485 556 q 311 455 358 501 q 236 346 264 408 q 207 213 208 283 q 67 556 67 357 q 91 706 67 633 q 159 839 115 778 q 264 947 203 900 q 399 1018 325 993 l 276 896 l 325 847 l 474 996 l 439 1031 q 556 1044 493 1044 q 663 1033 607 1044 l 625 996 l 774 847 l 824 896 l 696 1025 q 836 956 772 1001 q 947 848 900 910 q 1019 711 993 786 q 1044 556 1044 636 m 897 206 q 556 67 757 67 q 214 206 354 67 l 276 206 q 299 315 276 264 q 359 403 321 365 q 448 464 397 442 q 556 486 499 486 q 663 464 613 486 q 752 403 714 442 q 813 315 790 365 q 835 206 835 264 l 897 206 m 835 660 q 804 735 835 704 q 731 765 774 765 q 656 735 688 765 q 625 660 625 704 q 656 586 625 617 q 731 556 688 556 q 804 586 774 556 q 835 660 835 617 m 486 660 q 455 735 486 704 q 381 765 424 765 q 307 735 338 765 q 276 660 276 704 q 307 586 276 617 q 381 556 338 556 q 455 586 424 556 q 486 660 486 617 z "},"e":{"ha":1328,"x_min":-60,"x_max":1175,"o":"m 1175 556 q 1126 316 1175 428 q 994 119 1078 204 q 797 -14 910 35 q 558 -62 685 -62 q 318 -14 431 -62 q 122 119 206 35 q -11 315 38 203 q -60 556 -60 428 q -11 794 -60 682 q 122 991 38 907 q 319 1124 207 1075 q 558 1174 431 1174 q 797 1124 685 1174 q 994 991 910 1075 q 1126 794 1078 907 q 1175 556 1175 682 m 1103 560 q 1059 772 1103 672 q 941 947 1015 872 q 767 1065 867 1021 q 554 1108 667 1108 q 342 1065 442 1108 q 167 947 242 1021 q 48 772 92 872 q 4 560 4 672 q 48 347 4 447 q 167 172 92 247 q 342 53 242 97 q 554 10 442 10 q 767 53 667 10 q 941 172 867 97 q 1059 347 1015 247 q 1103 560 1103 447 m 1035 560 q 997 374 1035 461 q 893 221 958 286 q 740 117 828 156 q 554 79 653 79 q 369 117 456 79 q 216 219 282 154 q 112 372 150 285 q 74 560 74 460 q 112 747 74 660 q 216 900 150 835 q 369 1003 282 965 q 554 1040 456 1040 q 739 1002 651 1040 q 892 898 826 964 q 997 744 958 832 q 1035 560 1035 657 m 829 814 l 683 960 l 635 911 l 781 765 l 829 814 m 829 663 q 799 735 829 704 q 725 765 768 765 q 653 735 683 765 q 622 663 622 704 q 653 590 622 619 q 725 560 683 560 q 799 590 768 560 q 829 663 829 619 m 485 911 l 436 960 l 292 814 l 340 765 l 485 911 m 485 663 q 455 735 485 704 q 382 765 425 765 q 310 735 340 765 q 279 663 279 704 q 310 590 279 619 q 382 560 340 560 q 455 590 425 560 q 485 663 485 619 m 829 353 l 829 422 l 279 422 l 279 353 l 829 353 z "},"f":{"ha":1328,"x_min":-62,"x_max":1176,"o":"m 1176 554 q 1127 314 1176 426 q 994 117 1078 201 q 797 -17 910 32 q 557 -65 683 -65 q 316 -17 429 -65 q 119 116 203 32 q -14 313 35 200 q -62 554 -62 426 q -14 795 -62 682 q 119 992 35 908 q 316 1126 203 1076 q 557 1175 429 1175 q 797 1126 683 1175 q 994 992 910 1076 q 1127 794 1078 907 q 1176 554 1176 681 m 1104 558 q 1060 772 1104 671 q 942 947 1017 872 q 766 1066 867 1022 q 553 1110 665 1110 q 340 1067 440 1110 q 165 949 240 1024 q 46 773 90 874 q 1 558 1 672 q 45 344 1 444 q 164 169 89 244 q 339 51 239 94 q 553 7 439 7 q 767 51 667 7 q 943 170 868 94 q 1061 346 1018 246 q 1104 558 1104 446 m 1035 558 q 997 372 1035 460 q 894 219 960 285 q 740 115 828 153 q 553 76 653 76 q 366 115 454 76 q 213 218 278 153 q 109 372 147 283 q 71 558 71 460 q 110 746 71 658 q 214 899 149 833 q 367 1002 279 964 q 553 1040 454 1040 q 739 1002 651 1040 q 892 898 826 964 q 997 744 958 832 q 1035 558 1035 657 m 821 825 l 675 972 l 626 922 l 772 776 l 821 825 m 821 674 q 790 747 821 717 q 718 776 760 776 q 644 747 675 776 q 614 674 614 717 q 644 600 614 631 q 718 569 675 569 q 790 600 760 569 q 821 674 821 631 m 476 922 l 428 972 l 282 825 l 331 776 l 476 922 m 476 674 q 446 747 476 717 q 374 776 415 776 q 300 747 331 776 q 269 674 269 717 q 300 600 269 631 q 374 569 331 569 q 446 600 415 569 q 476 674 476 631 m 897 489 l 208 489 q 236 356 208 418 q 310 247 264 293 q 419 172 357 200 q 553 144 482 144 q 687 172 624 144 q 797 247 750 200 q 870 357 843 294 q 897 489 897 419 m 819 421 q 783 337 808 375 q 722 272 757 299 q 643 229 686 244 q 553 214 600 214 q 463 229 506 214 q 384 272 419 244 q 323 338 349 300 q 286 421 297 375 l 819 421 z "},"g":{"ha":1336,"x_min":-69,"x_max":1185,"o":"m 1185 556 q 1135 313 1185 426 q 999 113 1085 199 q 800 -22 914 28 q 558 -71 686 -71 q 315 -22 429 -71 q 116 113 201 28 q -19 312 31 197 q -69 556 -69 426 q -19 799 -69 685 q 116 998 31 913 q 315 1133 201 1083 q 558 1182 429 1182 q 800 1132 686 1182 q 999 997 914 1082 q 1135 797 1085 911 q 1185 556 1185 683 m 1115 556 q 1071 771 1115 669 q 951 948 1026 872 q 774 1068 875 1024 q 558 1113 672 1113 q 343 1069 444 1113 q 165 949 242 1025 q 44 772 89 874 q 0 556 0 671 q 44 339 0 440 q 164 162 88 238 q 342 42 240 86 q 558 -1 443 -1 q 775 43 674 -1 q 952 163 876 88 q 1072 340 1028 239 q 1115 556 1115 442 m 1044 556 q 1006 367 1044 456 q 901 213 968 279 q 747 107 835 146 q 558 68 658 68 q 369 106 458 68 q 215 211 281 144 q 110 367 149 278 q 71 556 71 456 q 110 744 71 656 q 215 900 149 833 q 369 1005 281 967 q 558 1043 458 1043 q 747 1004 658 1043 q 901 899 835 965 q 1006 744 968 832 q 1044 556 1044 656 m 906 694 q 894 749 906 724 q 865 794 883 775 q 821 824 846 813 q 767 835 796 835 q 713 824 738 835 q 669 794 688 813 q 639 749 650 775 q 628 694 628 724 q 668 596 628 636 q 767 556 708 556 q 865 596 825 556 q 906 694 906 636 m 488 694 q 476 749 488 724 q 447 794 465 775 q 403 824 428 813 q 349 835 378 835 q 294 824 319 835 q 251 794 269 813 q 221 749 232 775 q 210 694 210 724 q 250 596 210 636 q 349 556 290 556 q 447 596 407 556 q 488 694 488 636 m 906 486 l 210 486 q 237 350 210 414 q 311 239 264 286 q 422 165 358 192 q 558 138 486 138 q 692 165 629 138 q 803 240 756 193 q 878 351 850 288 q 906 486 906 415 m 836 694 q 816 646 836 667 q 767 625 796 625 q 717 646 738 625 q 697 694 697 667 q 717 744 697 724 q 767 765 738 765 q 816 744 796 765 q 836 694 836 724 m 418 694 q 398 646 418 667 q 349 625 378 625 q 299 646 319 625 q 279 694 279 667 q 299 744 279 724 q 349 765 319 765 q 398 744 378 765 q 418 694 418 724 m 828 417 q 791 333 817 372 q 729 267 765 294 q 649 223 693 239 q 558 207 606 207 q 467 222 511 207 q 388 266 424 238 q 325 333 351 294 q 288 417 299 371 l 828 417 z "},"h":{"ha":1326,"x_min":-68,"x_max":1176,"o":"m 1176 551 q 1128 311 1176 424 q 994 113 1079 199 q 797 -22 910 28 q 554 -71 683 -71 q 313 -22 426 -71 q 115 113 200 28 q -19 310 31 197 q -68 551 -68 424 q -47 709 -68 632 q 12 854 -26 786 q 104 980 50 922 q 225 1079 158 1038 l 190 1114 l 435 1358 l 553 1240 l 667 1354 l 911 1110 l 882 1081 q 1005 980 950 1038 q 1098 853 1060 922 q 1156 708 1136 785 q 1176 551 1176 631 m 554 1174 l 549 1179 l 544 1174 l 554 1174 m 1104 556 q 1081 713 1104 636 q 1014 857 1057 790 q 910 976 971 924 q 775 1061 849 1028 l 815 1100 l 668 1247 l 619 1199 l 744 1074 q 550 1108 653 1108 q 338 1067 439 1108 l 469 1199 l 421 1247 l 274 1100 l 317 1057 q 185 970 244 1022 q 85 852 126 918 q 20 711 43 786 q -3 556 -3 636 q 41 341 -3 442 q 160 165 85 240 q 335 47 235 90 q 550 3 436 3 q 765 47 664 3 q 941 165 865 90 q 1060 341 1017 240 q 1104 556 1104 442 m 1035 556 q 997 368 1035 456 q 892 215 958 281 q 738 110 826 149 q 550 72 650 72 q 363 110 450 72 q 209 215 275 149 q 105 368 143 281 q 67 556 67 456 q 105 742 67 654 q 209 897 143 831 q 363 1001 275 963 q 550 1039 450 1039 q 738 1001 650 1039 q 892 897 826 963 q 997 742 958 831 q 1035 556 1035 654 m 826 660 q 797 732 826 701 q 724 763 767 763 q 650 732 681 763 q 619 660 619 701 q 650 586 619 617 q 724 556 681 556 q 797 586 767 556 q 826 660 826 617 m 482 660 q 451 732 482 701 q 378 763 421 763 q 304 732 335 763 q 274 660 274 701 q 304 586 274 617 q 378 556 335 556 q 451 586 421 556 q 482 660 482 617 m 619 349 q 599 397 619 376 q 550 417 579 417 q 502 397 522 417 q 482 349 482 376 q 502 299 482 319 q 550 279 522 279 q 599 299 579 279 q 619 349 619 319 z "},"i":{"ha":1335,"x_min":-69,"x_max":1183,"o":"m 1183 557 q 1134 314 1183 428 q 999 115 1085 200 q 800 -20 914 29 q 557 -69 686 -69 q 314 -20 428 -69 q 115 115 200 29 q -20 314 29 200 q -69 557 -69 428 q -20 800 -69 686 q 115 999 29 914 q 314 1134 200 1085 q 557 1183 428 1183 q 800 1134 686 1183 q 999 999 914 1085 q 1134 800 1085 914 q 1183 557 1183 686 m 1114 557 q 1069 772 1114 671 q 949 949 1025 874 q 772 1069 874 1025 q 557 1114 671 1114 q 342 1070 443 1114 q 165 951 240 1026 q 44 774 89 875 q 0 557 0 672 q 44 341 0 442 q 164 164 88 240 q 341 44 240 88 q 557 0 442 0 q 774 44 672 0 q 951 165 875 89 q 1070 342 1026 240 q 1114 557 1114 443 m 1044 557 q 939 254 1044 386 q 869 406 938 332 q 904 557 904 475 l 835 557 q 813 449 835 500 q 753 360 790 399 q 665 300 715 322 q 557 278 614 278 q 449 300 500 278 q 360 360 399 322 q 300 449 322 399 q 278 557 278 500 l 208 557 q 235 421 208 485 q 310 310 263 357 q 421 235 357 263 q 557 208 485 208 q 672 228 614 208 l 663 219 q 811 140 732 150 q 557 69 694 69 q 368 108 457 69 q 213 213 279 146 q 108 368 147 279 q 69 557 69 457 q 108 746 69 657 q 213 901 147 835 q 368 1006 279 968 q 557 1044 457 1044 q 746 1006 657 1044 q 901 901 835 967 q 1006 746 967 835 q 1044 557 1044 657 m 869 247 q 832 210 869 210 q 728 254 785 210 q 831 343 786 286 q 859 292 850 315 q 869 247 868 268 m 854 760 q 831 813 854 792 q 775 835 807 835 q 706 786 729 835 q 636 835 693 835 q 579 812 601 835 q 557 756 557 789 q 569 710 557 735 q 597 662 582 685 q 626 623 613 639 q 639 606 639 607 q 649 586 643 597 q 660 562 653 576 q 676 528 667 547 q 738 572 707 544 q 795 633 769 600 q 838 699 821 665 q 854 760 854 732 m 557 751 q 485 832 557 832 q 415 781 438 832 q 344 832 403 832 q 288 807 310 832 q 267 746 267 782 q 272 701 267 719 q 295 663 278 682 q 346 619 313 643 q 435 557 379 594 q 434 560 435 560 q 433 564 433 561 q 493 664 433 600 q 557 751 557 732 z "},"j":{"ha":1328,"x_min":-64,"x_max":1175,"o":"m 1175 557 q 1126 317 1175 429 q 992 119 1076 204 q 795 -14 908 35 q 556 -62 682 -62 q 315 -14 428 -62 q 117 119 201 35 q -15 316 33 203 q -64 557 -64 429 q -15 798 -64 685 q 117 995 33 911 q 315 1128 201 1079 q 556 1178 428 1178 q 795 1128 682 1178 q 992 994 908 1079 q 1126 797 1076 910 q 1175 557 1175 683 m 1107 557 q 1063 769 1107 669 q 944 945 1019 869 q 768 1065 868 1021 q 556 1108 668 1108 q 343 1065 443 1108 q 168 947 243 1022 q 49 772 93 872 q 4 557 4 671 q 48 343 4 443 q 167 168 92 243 q 342 49 242 93 q 556 6 442 6 q 770 50 669 6 q 946 169 871 94 q 1064 344 1021 244 q 1107 557 1107 444 m 1038 557 q 1000 371 1038 458 q 897 217 963 283 q 743 113 831 151 q 556 75 656 75 q 368 113 456 75 q 215 217 281 151 q 112 369 150 282 q 74 557 74 457 q 112 744 74 657 q 216 898 150 832 q 369 1001 282 964 q 556 1039 457 1039 q 742 1001 654 1039 q 895 897 829 963 q 999 743 961 831 q 1038 557 1038 656 m 900 626 q 890 704 900 667 q 860 770 879 742 q 817 816 842 799 q 763 833 792 833 q 708 816 733 833 q 664 770 682 799 q 635 704 646 742 q 625 626 625 667 l 693 626 q 699 673 693 649 q 714 717 704 697 q 736 751 724 738 q 763 764 749 764 q 788 751 776 764 q 810 717 800 738 q 825 673 819 697 q 831 626 831 649 l 900 626 m 486 626 q 476 704 486 667 q 447 770 465 742 q 403 816 429 799 q 349 833 378 833 q 294 816 319 833 q 251 770 269 799 q 222 704 232 742 q 211 626 211 667 l 281 626 q 286 673 281 649 q 301 717 292 697 q 322 751 310 738 q 349 764 335 764 q 375 751 363 764 q 397 717 388 738 q 413 673 407 697 q 418 626 418 649 l 486 626 m 900 557 l 831 557 q 808 450 831 500 q 749 363 786 400 q 661 303 711 325 q 556 282 611 282 q 449 303 499 282 q 361 363 399 325 q 302 450 324 400 q 281 557 281 500 l 211 557 q 238 424 211 486 q 313 314 265 361 q 422 240 360 267 q 556 213 485 213 q 690 240 626 213 q 799 315 753 268 q 873 425 846 363 q 900 557 900 488 z "},"k":{"ha":1331,"x_min":-68,"x_max":1179,"o":"m 1179 556 q 1130 315 1179 428 q 997 116 1081 201 q 799 -19 913 31 q 556 -68 685 -68 q 313 -19 426 -68 q 115 115 200 31 q -19 313 31 200 q -68 556 -68 426 q -19 799 -68 685 q 116 997 31 913 q 315 1130 201 1081 q 556 1179 428 1179 q 797 1130 683 1179 q 996 995 911 1081 q 1130 797 1081 910 q 1179 556 1179 683 m 1107 558 q 1063 774 1107 674 q 942 950 1018 875 q 766 1069 867 1025 q 553 1113 665 1113 q 338 1069 439 1113 q 162 950 238 1025 q 42 774 86 875 q -1 558 -1 674 q 42 342 -1 443 q 161 167 86 242 q 337 48 236 92 q 553 4 438 4 q 767 48 667 4 q 944 167 868 92 q 1063 344 1019 243 q 1107 558 1107 444 m 1038 558 q 899 219 1038 360 q 869 352 897 290 q 794 460 842 414 q 685 532 747 506 q 553 558 622 558 q 419 532 482 558 q 310 460 357 506 q 235 352 263 414 q 206 219 207 290 q 67 558 67 360 q 106 748 67 660 q 211 902 144 836 q 366 1006 278 968 q 553 1044 454 1044 q 740 1006 651 1044 q 894 901 828 967 q 999 747 960 835 q 1038 558 1038 658 m 892 213 q 553 74 751 74 q 213 213 353 74 l 275 213 q 297 320 275 269 q 357 408 319 371 q 445 468 394 446 q 553 490 496 490 q 659 468 608 490 q 747 408 710 446 q 807 319 785 369 q 829 213 829 268 l 892 213 m 899 628 q 888 706 899 668 q 858 772 876 743 q 814 819 839 801 q 760 836 789 836 q 705 819 731 836 q 660 772 679 801 q 631 706 642 743 q 621 628 621 668 l 690 628 q 696 673 690 649 q 711 718 701 697 q 733 753 721 739 q 760 767 746 767 q 787 753 774 767 q 809 718 800 739 q 824 673 818 697 q 829 628 829 649 l 899 628 m 483 628 q 472 706 483 668 q 442 772 461 743 q 399 819 424 801 q 344 836 374 836 q 290 819 315 836 q 245 772 264 801 q 216 706 226 743 q 206 628 206 668 l 275 628 q 281 673 275 649 q 295 718 286 697 q 317 753 304 739 q 344 767 329 767 q 371 753 358 767 q 393 719 383 740 q 408 674 403 699 q 414 628 414 650 l 483 628 z "},"l":{"ha":1328,"x_min":-64,"x_max":1176,"o":"m 1176 556 q 1127 315 1176 428 q 994 117 1078 201 q 797 -16 910 33 q 556 -65 683 -65 q 315 -16 428 -65 q 119 118 203 33 q -15 315 35 203 q -64 556 -64 428 q -15 795 -64 682 q 119 992 35 908 q 315 1126 203 1076 q 556 1175 428 1175 q 795 1126 682 1175 q 993 992 908 1076 q 1127 795 1078 908 q 1176 556 1176 682 m 1103 560 q 1059 772 1103 672 q 940 947 1015 872 q 765 1066 865 1022 q 553 1110 665 1110 q 339 1066 439 1110 q 164 947 239 1022 q 45 772 89 872 q 1 560 1 672 q 44 345 1 446 q 163 169 88 244 q 338 51 238 94 q 553 8 439 8 q 765 52 665 8 q 940 171 865 96 q 1059 346 1015 246 q 1103 560 1103 446 m 1035 560 q 997 372 1035 460 q 892 219 958 285 q 739 115 826 153 q 553 76 651 76 q 365 115 453 76 q 212 219 278 153 q 108 372 146 285 q 69 560 69 460 q 108 746 69 658 q 212 899 146 833 q 365 1003 278 965 q 553 1042 453 1042 q 739 1003 651 1042 q 892 899 826 965 q 997 746 958 833 q 1035 560 1035 658 m 897 628 q 887 706 897 668 q 858 772 876 743 q 813 817 839 800 q 758 835 788 835 q 704 817 729 835 q 660 772 679 800 q 631 706 642 743 q 621 628 621 668 l 690 628 q 696 674 690 650 q 710 719 701 699 q 732 752 719 739 q 758 765 744 765 q 785 752 772 765 q 807 719 797 739 q 822 674 817 699 q 828 628 828 650 l 897 628 m 483 628 q 473 706 483 668 q 444 772 463 743 q 401 817 426 800 q 346 835 375 835 q 290 817 315 835 q 247 772 265 800 q 219 706 229 743 q 208 628 208 668 l 276 628 q 282 674 276 650 q 297 719 288 699 q 319 752 307 739 q 346 765 332 765 q 372 752 360 765 q 393 719 383 739 q 408 674 403 699 q 414 628 414 650 l 483 628 m 758 353 l 758 421 l 346 421 l 346 353 l 758 353 z "},"m":{"ha":1326,"x_min":-64,"x_max":1176,"o":"m 1176 554 q 1127 313 1176 426 q 994 116 1078 200 q 797 -17 910 32 q 556 -67 683 -67 q 315 -17 428 -67 q 119 117 203 32 q -15 314 35 201 q -64 554 -64 426 q -15 794 -64 681 q 119 991 35 907 q 315 1124 203 1075 q 556 1174 428 1174 q 795 1124 682 1174 q 993 991 908 1075 q 1127 794 1078 907 q 1176 554 1176 681 m 1103 558 q 1059 771 1103 671 q 940 946 1015 871 q 765 1065 865 1021 q 553 1108 665 1108 q 339 1065 439 1108 q 164 946 239 1021 q 45 771 89 871 q 1 558 1 671 q 44 344 1 444 q 163 168 88 243 q 338 50 238 93 q 553 7 439 7 q 765 51 665 7 q 940 169 865 94 q 1059 344 1015 244 q 1103 558 1103 444 m 1035 558 q 997 371 1035 458 q 892 217 958 283 q 739 113 826 151 q 553 75 651 75 q 365 113 453 75 q 212 217 278 151 q 108 371 146 283 q 69 558 69 458 q 108 744 69 657 q 212 898 146 832 q 365 1002 278 964 q 553 1040 453 1040 q 739 1002 651 1040 q 892 898 826 964 q 997 744 958 832 q 1035 558 1035 657 m 897 614 q 887 692 897 654 q 858 758 876 729 q 813 803 839 786 q 758 821 788 821 q 704 803 729 821 q 660 758 679 786 q 631 692 642 729 q 621 614 621 654 l 690 614 q 696 660 690 636 q 710 706 701 685 q 732 740 719 726 q 758 753 744 753 q 785 740 772 753 q 807 706 797 726 q 822 660 817 685 q 828 614 828 636 l 897 614 m 483 614 q 473 692 483 654 q 444 758 463 729 q 401 803 426 786 q 346 821 375 821 q 290 803 315 821 q 247 758 265 786 q 219 692 229 729 q 208 614 208 654 l 276 614 q 283 660 276 636 q 299 706 289 685 q 321 740 308 726 q 346 753 333 753 q 371 740 358 753 q 393 706 383 726 q 408 660 403 685 q 414 614 414 636 l 483 614 m 897 489 l 208 489 q 235 355 208 418 q 309 245 263 292 q 419 172 356 199 q 553 144 482 144 q 686 172 624 144 q 796 246 749 199 q 870 356 843 293 q 897 489 897 418 m 819 419 q 783 338 808 375 q 722 272 757 300 q 643 229 686 244 q 553 214 600 214 q 462 229 506 214 q 383 272 418 244 q 322 337 347 299 q 285 419 296 375 l 819 419 z "},"n":{"ha":1326,"x_min":-62,"x_max":1175,"o":"m 1175 556 q 1126 315 1175 428 q 992 118 1076 203 q 795 -15 908 33 q 556 -64 682 -64 q 315 -15 428 -64 q 119 118 203 33 q -14 315 35 203 q -62 556 -62 428 q -14 794 -62 682 q 119 991 35 907 q 316 1124 204 1075 q 556 1174 428 1174 q 794 1124 682 1174 q 992 991 907 1075 q 1126 794 1076 907 q 1175 556 1175 682 m 1103 558 q 1059 772 1103 671 q 940 947 1015 872 q 765 1066 865 1022 q 553 1110 665 1110 q 340 1067 440 1110 q 165 949 240 1024 q 46 773 90 874 q 1 558 1 672 q 45 346 1 446 q 164 171 89 246 q 340 52 239 96 q 553 8 440 8 q 765 52 665 8 q 940 171 865 96 q 1059 346 1015 246 q 1103 558 1103 446 m 1033 558 q 896 222 1033 361 q 867 351 894 290 q 792 458 839 413 q 683 531 744 504 q 553 558 621 558 q 422 532 483 558 q 313 460 360 506 q 238 353 265 414 q 208 222 210 292 q 71 558 71 361 q 109 746 71 658 q 213 899 147 833 q 367 1003 279 965 q 553 1040 454 1040 q 738 1002 650 1040 q 891 898 825 964 q 995 744 957 832 q 1033 558 1033 657 m 818 283 l 286 283 q 324 367 297 329 q 385 433 350 406 q 464 475 421 460 q 553 490 507 490 q 642 475 599 490 q 720 432 685 460 q 781 366 756 404 q 818 283 807 328 m 889 215 q 553 78 749 78 q 215 215 354 78 l 889 215 m 896 628 q 885 706 896 668 q 856 772 875 743 q 813 817 838 800 q 758 833 788 833 q 704 817 729 833 q 660 772 679 800 q 631 706 642 743 q 621 628 621 668 l 690 628 q 696 674 690 650 q 710 719 701 699 q 732 752 719 739 q 758 765 744 765 q 783 752 771 765 q 806 718 796 739 q 822 673 815 697 q 828 628 828 649 l 896 628 m 483 628 q 473 706 483 668 q 444 772 463 743 q 400 817 425 800 q 346 833 375 833 q 292 817 317 833 q 248 772 267 800 q 219 706 229 743 q 208 628 208 668 l 278 628 q 283 674 278 650 q 298 719 289 699 q 319 752 307 739 q 346 765 332 765 q 371 752 358 765 q 393 718 383 739 q 409 673 403 697 q 415 628 415 649 l 483 628 z "},"o":{"ha":1328,"x_min":-64,"x_max":1176,"o":"m 1176 556 q 1127 315 1176 428 q 994 117 1078 201 q 797 -15 910 33 q 556 -64 683 -64 q 315 -15 428 -64 q 118 118 203 33 q -15 315 33 203 q -64 556 -64 428 q -15 795 -64 682 q 119 993 35 908 q 315 1127 203 1078 q 556 1176 428 1176 q 797 1127 683 1176 q 994 994 910 1078 q 1127 797 1078 910 q 1176 556 1176 683 m 1103 560 q 1059 773 1103 672 q 940 949 1015 874 q 765 1067 865 1024 q 553 1111 665 1111 q 339 1067 439 1111 q 164 949 239 1024 q 45 773 89 874 q 1 560 1 672 q 44 347 1 447 q 163 172 88 247 q 338 52 238 96 q 553 8 438 8 q 767 52 667 8 q 942 171 867 96 q 1060 347 1017 246 q 1103 560 1103 447 m 1035 560 q 997 373 1035 461 q 892 219 958 285 q 739 116 826 154 q 553 78 651 78 q 365 116 453 78 q 212 219 278 154 q 108 372 146 285 q 69 560 69 460 q 108 747 69 660 q 213 900 147 835 q 367 1003 279 965 q 553 1042 454 1042 q 738 1003 650 1042 q 891 900 825 965 q 996 747 957 835 q 1035 560 1035 660 m 828 815 l 682 961 l 633 913 l 779 767 l 828 815 m 828 663 q 797 736 828 706 q 725 767 767 767 q 651 736 682 767 q 621 663 621 706 q 651 590 621 621 q 725 560 682 560 q 797 590 767 560 q 828 663 828 621 m 483 913 l 435 961 l 289 815 l 338 767 l 483 913 m 483 663 q 453 736 483 706 q 381 767 422 767 q 307 736 338 767 q 276 663 276 706 q 307 590 276 621 q 381 560 338 560 q 453 590 422 560 q 483 663 483 621 m 690 353 q 679 406 690 381 q 649 449 668 431 q 606 479 631 468 q 553 490 581 490 q 454 451 494 490 q 414 353 414 411 q 454 255 414 294 q 553 215 494 215 q 606 226 581 215 q 649 256 631 238 q 679 300 668 275 q 690 353 690 325 z "},"p":{"ha":1325,"x_min":-68,"x_max":1176,"o":"m 1176 554 q 1127 315 1176 428 q 993 117 1078 201 q 795 -18 908 32 q 554 -68 682 -68 q 312 -19 425 -68 q 114 116 199 31 q -19 314 29 201 q -68 554 -68 426 q -48 711 -68 635 q 10 856 -28 788 q 103 981 49 924 q 224 1082 157 1039 l 190 1117 l 435 1361 l 553 1243 l 665 1357 l 910 1113 l 881 1083 q 1003 983 949 1040 q 1097 856 1058 925 q 1156 711 1135 788 q 1176 554 1176 635 m 553 1176 l 549 1182 l 543 1176 l 553 1176 m 1107 554 q 1083 712 1107 635 q 1017 855 1060 789 q 913 974 974 921 q 779 1060 853 1026 l 818 1099 l 671 1246 l 622 1197 l 747 1072 q 554 1107 656 1107 q 340 1065 442 1107 l 472 1197 l 424 1246 l 276 1099 l 321 1056 q 188 969 247 1022 q 88 851 129 917 q 23 710 46 786 q 0 554 0 635 q 44 340 0 440 q 163 164 88 239 q 340 45 239 89 q 554 1 440 1 q 769 45 668 1 q 944 164 869 89 q 1063 340 1019 239 q 1107 554 1107 440 m 1038 554 q 897 214 1038 357 q 903 250 903 229 q 853 382 903 317 q 899 554 899 463 l 831 554 q 808 447 831 497 q 749 360 786 397 q 660 300 711 322 q 554 278 610 278 q 447 299 497 278 q 358 358 396 321 q 299 447 321 396 q 276 554 276 497 l 208 554 q 236 420 208 483 q 310 310 264 357 q 420 236 357 264 q 554 208 483 208 q 632 218 594 208 q 786 142 708 142 l 794 142 l 808 143 q 554 71 693 71 q 366 109 454 71 q 212 213 278 147 q 108 367 146 279 q 69 554 69 454 q 108 742 69 654 q 212 897 146 831 q 366 1001 278 963 q 554 1039 454 1039 q 741 1001 653 1039 q 895 897 829 963 q 999 742 961 831 q 1038 554 1038 654 m 833 249 q 796 211 833 211 q 707 244 757 211 q 810 322 765 274 q 833 249 833 278 m 761 669 q 731 743 761 713 q 657 774 700 774 q 584 743 614 774 q 554 669 554 713 q 524 743 554 713 q 450 774 493 774 q 376 743 407 774 q 346 669 346 713 q 376 597 346 628 q 450 567 407 567 q 524 597 493 567 q 554 669 554 628 q 584 597 554 628 q 657 567 614 567 q 731 597 700 567 q 761 669 761 628 z "},"q":{"ha":1329,"x_min":-64,"x_max":1176,"o":"m 1176 557 q 1127 317 1176 429 q 994 119 1078 204 q 797 -15 910 35 q 557 -64 683 -64 q 316 -15 429 -64 q 119 119 203 35 q -15 316 35 203 q -64 557 -64 429 q -15 797 -64 683 q 119 994 35 910 q 317 1127 204 1078 q 557 1176 429 1176 q 797 1127 683 1176 q 994 994 910 1078 q 1127 797 1078 910 q 1176 557 1176 683 m 1104 561 q 1060 774 1104 674 q 942 949 1017 874 q 766 1067 867 1024 q 553 1111 665 1111 q 340 1068 440 1111 q 164 950 239 1025 q 45 775 89 875 q 1 561 1 675 q 45 346 1 446 q 165 171 89 246 q 340 53 240 96 q 553 10 440 10 q 766 53 665 10 q 942 172 867 97 q 1060 347 1017 247 q 1104 561 1104 447 m 1035 561 q 997 375 1035 463 q 893 222 958 288 q 740 117 828 156 q 553 78 653 78 q 365 116 453 78 q 213 220 278 154 q 109 374 147 286 q 71 561 71 461 q 109 747 71 660 q 213 901 147 835 q 366 1005 278 967 q 553 1043 454 1043 q 740 1004 653 1043 q 893 899 828 965 q 997 746 958 833 q 1035 561 1035 658 m 897 561 l 863 561 q 897 664 897 606 q 883 730 897 699 q 846 785 869 761 q 791 822 822 808 q 725 836 760 836 q 659 823 690 836 q 604 786 628 810 q 567 731 581 763 q 553 664 553 700 q 539 730 553 699 q 501 785 525 761 q 447 822 478 808 q 381 836 415 836 q 315 823 346 836 q 260 786 283 810 q 222 731 236 763 q 208 664 208 700 q 243 561 208 606 l 208 561 q 235 427 208 490 q 309 317 263 364 q 419 244 356 271 q 553 217 482 217 q 688 244 625 217 q 797 319 750 272 q 870 428 843 365 q 897 561 897 490 m 811 664 q 786 603 811 628 q 725 578 761 578 q 664 603 689 578 q 639 664 639 628 q 664 725 639 700 q 725 750 689 750 q 785 725 760 750 q 811 664 811 700 m 467 664 q 442 603 467 628 q 381 578 417 578 q 319 603 344 578 q 294 664 294 628 q 319 725 294 700 q 381 750 344 750 q 442 725 417 750 q 467 664 467 700 m 826 524 q 795 430 819 474 q 734 353 771 386 q 651 303 697 321 q 553 285 604 285 q 453 303 500 285 q 371 353 407 321 q 310 428 335 385 q 279 524 286 472 q 381 492 326 492 q 448 506 417 492 q 503 543 479 519 q 540 598 526 567 q 553 664 553 629 q 567 597 553 628 q 603 542 581 565 q 658 506 626 519 q 725 492 689 492 q 826 524 779 492 z "},"r":{"ha":1329,"x_min":-64,"x_max":1176,"o":"m 1176 558 q 1127 317 1176 431 q 994 120 1078 204 q 797 -13 910 36 q 556 -62 683 -62 q 315 -13 428 -62 q 119 121 203 36 q -15 318 35 206 q -64 558 -64 431 q -15 798 -64 685 q 119 995 35 911 q 315 1128 203 1079 q 556 1178 428 1178 q 795 1128 682 1178 q 993 995 908 1079 q 1127 798 1078 911 q 1176 558 1176 685 m 1103 561 q 1035 828 1103 706 l 1035 838 l 1029 838 q 942 951 993 900 q 828 1038 890 1003 q 697 1093 767 1074 q 553 1113 626 1113 q 409 1093 479 1113 q 277 1038 339 1074 q 163 952 215 1003 q 75 838 111 901 l 69 838 l 69 828 q 1 561 1 706 q 44 349 1 449 q 163 173 88 249 q 338 53 238 97 q 553 10 438 10 q 767 53 667 10 q 942 172 867 97 q 1060 348 1017 247 q 1103 561 1103 449 m 947 838 l 157 838 q 328 989 224 935 q 553 1043 432 1043 q 776 989 671 1043 q 947 838 881 935 m 1035 561 q 997 375 1035 463 q 892 222 958 288 q 739 117 826 156 q 553 79 651 79 q 365 117 453 79 q 212 222 278 156 q 108 375 146 288 q 69 561 69 463 q 117 768 69 672 l 208 768 l 208 699 q 222 644 208 669 q 260 600 236 618 q 316 572 285 582 q 381 561 347 561 q 444 572 414 561 q 499 601 475 582 q 538 644 524 619 q 553 699 553 669 q 567 644 553 669 q 605 600 581 618 q 660 572 629 582 q 725 561 692 561 q 789 572 758 561 q 844 601 819 582 q 883 644 868 619 q 897 699 897 669 l 897 768 l 988 768 q 1035 561 1035 672 m 897 561 l 828 561 q 806 454 828 504 q 746 367 783 404 q 658 308 708 329 q 553 286 608 286 q 446 308 496 286 q 358 367 396 329 q 299 454 321 404 q 276 561 276 504 l 208 561 q 235 428 208 490 q 310 318 263 365 q 419 244 357 271 q 553 217 482 217 q 686 244 624 217 q 795 319 749 272 q 869 428 842 365 q 897 561 897 490 z "},"s":{"ha":1333,"x_min":-71,"x_max":1182,"o":"m 1182 556 q 1133 313 1182 426 q 998 113 1083 199 q 799 -22 913 28 q 556 -71 685 -71 q 313 -22 426 -71 q 113 113 199 28 q -22 313 28 199 q -71 556 -71 426 q -22 799 -71 685 q 113 998 28 913 q 313 1133 199 1083 q 556 1182 426 1182 q 799 1133 685 1182 q 998 998 913 1083 q 1133 799 1083 913 q 1182 556 1182 685 m 1113 556 q 1068 771 1113 669 q 948 948 1024 872 q 771 1068 872 1024 q 556 1113 669 1113 q 340 1069 442 1113 q 163 949 239 1025 q 43 772 88 874 q -1 556 -1 671 q 42 340 -1 440 q 163 163 86 239 q 340 42 239 86 q 556 -1 440 -1 q 772 43 671 -1 q 949 163 874 88 q 1069 340 1025 239 q 1113 556 1113 442 m 1043 556 q 1004 367 1043 456 q 899 212 965 278 q 744 107 833 146 q 556 68 656 68 q 367 107 456 68 q 212 212 278 146 q 107 367 146 278 q 68 556 68 456 q 107 744 68 656 q 212 899 146 833 q 367 1004 278 965 q 556 1043 456 1043 q 744 1004 656 1043 q 899 899 833 965 q 1004 744 965 833 q 1043 556 1043 656 m 835 835 l 835 904 l 625 904 l 625 835 l 835 835 m 835 660 q 803 734 835 703 q 729 765 772 765 q 656 734 686 765 q 625 660 625 703 q 656 586 625 617 q 729 556 686 556 q 803 586 772 556 q 835 660 835 617 m 486 660 q 460 729 486 701 l 486 756 l 339 904 l 289 854 l 379 764 q 306 733 336 764 q 276 660 276 703 q 308 586 276 617 q 382 556 339 556 q 456 586 425 556 q 486 660 486 617 m 835 347 l 835 417 l 276 417 l 276 347 l 835 347 z "},"t":{"ha":1335,"x_min":-71,"x_max":1183,"o":"m 1183 556 q 1133 313 1183 426 q 998 113 1083 199 q 799 -22 913 28 q 556 -71 685 -71 q 314 -22 428 -71 q 115 113 200 28 q -21 312 29 197 q -71 556 -71 426 q -21 799 -71 685 q 115 999 29 914 q 314 1133 200 1083 q 556 1182 428 1182 q 799 1133 685 1182 q 998 998 913 1083 q 1133 799 1083 913 q 1183 556 1183 685 m 1113 556 q 1068 771 1113 669 q 948 948 1024 872 q 771 1068 872 1024 q 556 1113 669 1113 q 340 1069 442 1113 q 163 949 239 1025 q 43 772 88 874 q -1 556 -1 671 q 42 340 -1 440 q 163 163 86 239 q 340 42 239 86 q 556 -1 440 -1 q 772 43 671 -1 q 949 163 874 88 q 1069 340 1025 239 q 1113 556 1113 442 m 1043 556 q 1005 367 1043 456 q 900 213 967 279 q 744 107 833 146 q 556 68 656 68 q 367 107 456 68 q 212 212 278 146 q 107 367 146 278 q 68 556 68 456 q 107 744 68 656 q 212 899 146 833 q 367 1004 278 965 q 556 1043 456 1043 q 744 1004 656 1043 q 900 899 833 965 q 1005 744 967 832 q 1043 556 1043 656 m 904 699 q 890 765 904 733 q 853 821 876 797 q 797 858 829 844 q 731 872 765 872 q 663 858 694 872 q 608 821 632 844 q 569 766 583 797 q 556 699 556 735 q 542 765 556 733 q 504 821 528 797 q 449 858 481 844 q 382 872 417 872 q 316 859 347 872 q 260 822 285 846 q 222 767 236 799 q 208 699 208 735 q 222 631 208 663 q 258 575 235 599 q 314 538 282 551 q 382 525 346 525 q 450 539 418 525 q 506 577 482 553 q 542 633 529 601 q 556 699 556 664 q 569 631 556 663 q 607 576 583 600 q 663 539 631 553 q 731 525 694 525 q 799 539 767 525 q 854 577 831 553 q 891 633 878 601 q 904 699 904 664 m 904 508 l 208 508 q 235 373 208 436 q 310 263 263 310 q 420 188 357 215 q 556 161 483 161 q 690 189 626 161 q 801 264 754 217 q 876 374 849 311 q 904 508 904 438 m 817 699 q 792 637 817 663 q 731 611 767 611 q 669 637 694 611 q 643 699 643 663 q 669 760 643 735 q 731 786 694 786 q 792 760 767 786 q 817 699 817 735 m 469 699 q 444 637 469 663 q 382 611 418 611 q 320 637 346 611 q 294 699 294 663 q 320 760 294 735 q 382 786 346 786 q 444 760 418 786 q 469 699 469 735 m 826 439 q 789 356 815 394 q 726 290 763 318 q 647 247 690 263 q 556 231 603 231 q 466 246 510 231 q 386 289 422 261 q 324 355 350 317 q 286 439 297 393 l 826 439 z "},"u":{"ha":1335,"x_min":-69,"x_max":1183,"o":"m 1183 557 q 1134 314 1183 428 q 999 115 1085 200 q 800 -20 914 29 q 557 -69 686 -69 q 314 -20 428 -69 q 115 115 200 29 q -20 314 29 200 q -69 557 -69 428 q -20 800 -69 686 q 115 999 29 914 q 314 1134 200 1085 q 557 1183 428 1183 q 800 1134 686 1183 q 999 999 914 1085 q 1134 800 1085 914 q 1183 557 1183 686 m 1114 557 q 1069 772 1114 671 q 949 949 1025 874 q 772 1069 874 1025 q 557 1114 671 1114 q 342 1070 443 1114 q 165 951 240 1026 q 44 774 89 875 q 0 557 0 672 q 44 341 0 442 q 164 164 88 240 q 341 44 240 88 q 557 0 442 0 q 774 44 672 0 q 951 165 875 89 q 1070 342 1026 240 q 1114 557 1114 443 m 1044 557 q 1006 368 1044 457 q 901 213 967 279 q 746 108 835 147 q 557 69 657 69 q 368 108 457 69 q 213 213 279 146 q 108 368 147 279 q 69 557 69 457 q 108 746 69 657 q 213 901 147 835 q 368 1006 279 968 q 557 1044 457 1044 q 746 1006 657 1044 q 901 901 835 967 q 1006 746 967 835 q 1044 557 1044 657 m 835 835 l 835 906 l 626 906 l 626 835 l 835 835 m 835 661 q 804 735 835 704 q 731 765 774 765 q 657 735 688 765 q 626 661 626 704 q 657 588 626 618 q 731 557 688 557 q 804 588 774 557 q 835 661 835 618 m 488 661 q 461 731 488 703 l 488 757 l 339 906 l 290 856 l 381 765 q 308 735 338 765 q 278 661 278 704 q 308 588 278 618 q 382 557 339 557 q 456 588 425 557 q 488 661 488 618 m 626 278 q 606 327 626 307 q 557 347 585 347 q 508 327 528 347 q 488 278 488 307 q 508 229 488 250 q 557 208 528 208 q 606 229 585 208 q 626 278 626 250 z "},"v":{"ha":1340,"x_min":-71,"x_max":1192,"o":"m 1192 558 q 1142 315 1192 429 q 1005 114 1092 200 q 803 -22 918 28 q 560 -72 689 -72 q 315 -22 431 -72 q 115 113 200 28 q -21 314 29 199 q -71 558 -71 429 q -50 717 -71 639 q 9 864 -29 794 q 102 992 47 933 q 226 1093 157 1051 l 192 1128 l 439 1376 l 558 1257 l 674 1372 l 922 1124 l 893 1094 q 1017 994 961 1053 q 1111 865 1072 935 q 1171 717 1150 794 q 1192 558 1192 639 m 560 1189 l 556 1194 l 550 1189 l 560 1189 m 1121 558 q 1097 718 1121 640 q 1030 863 1074 796 q 925 983 986 929 q 789 1071 864 1038 l 829 1111 l 681 1260 l 631 1210 l 757 1083 q 560 1119 660 1119 q 344 1076 444 1119 l 478 1210 l 429 1260 l 279 1111 l 324 1067 q 191 980 250 1033 q 89 860 132 926 q 23 716 46 793 q 0 558 0 639 q 44 341 0 443 q 164 163 88 239 q 342 42 240 86 q 560 -3 444 -3 q 778 42 676 -3 q 956 163 881 86 q 1076 341 1032 239 q 1121 558 1121 443 m 1051 558 q 1013 369 1051 458 q 907 212 974 279 q 751 106 840 144 q 560 67 661 67 q 369 106 458 67 q 214 211 281 144 q 108 367 147 278 q 69 558 69 457 q 108 748 69 658 q 214 904 147 838 q 370 1010 281 971 q 560 1049 460 1049 q 749 1010 660 1049 q 906 903 839 971 q 1013 747 974 836 q 1051 558 1051 658 m 911 664 q 897 732 911 700 q 860 788 883 764 q 804 825 836 811 q 736 839 772 839 q 668 825 700 839 q 612 788 636 811 q 574 732 588 764 q 560 664 560 700 q 546 732 560 700 q 508 788 532 764 q 453 825 485 811 q 385 839 421 839 q 317 825 349 839 q 261 788 285 811 q 224 732 238 764 q 210 664 210 700 q 224 596 210 628 q 261 540 238 564 q 317 501 285 515 q 385 488 349 488 q 453 501 421 488 q 508 540 485 515 q 546 596 532 564 q 560 664 560 628 q 574 595 560 628 q 611 539 588 563 q 667 501 635 515 q 736 488 700 488 q 804 501 772 488 q 860 540 836 515 q 897 596 883 564 q 911 664 911 628 m 631 347 q 610 397 631 376 q 560 418 589 418 q 511 397 532 418 q 490 347 490 376 q 511 299 490 319 q 560 278 532 278 q 610 299 589 278 q 631 347 631 319 m 824 664 q 798 601 824 628 q 736 575 772 575 q 674 601 700 575 q 647 664 647 628 q 674 726 647 700 q 736 751 700 751 q 798 726 772 751 q 824 664 824 700 m 472 664 q 447 601 472 628 q 385 575 421 575 q 323 601 349 575 q 297 664 297 628 q 323 726 297 700 q 385 751 349 751 q 447 726 421 751 q 472 664 472 700 z "},"w":{"ha":1321,"x_min":-69,"x_max":1172,"o":"m 1172 554 q 1123 313 1172 426 q 990 116 1074 200 q 792 -17 906 32 q 551 -67 679 -67 q 310 -17 424 -67 q 113 116 197 32 q -20 313 29 200 q -69 554 -69 426 q -49 711 -69 635 q 9 856 -29 788 q 101 981 47 924 q 224 1081 156 1038 l 189 1115 l 433 1358 l 550 1242 l 664 1354 l 907 1111 l 878 1082 q 1000 982 946 1040 q 1092 856 1054 924 q 1151 710 1131 788 q 1172 554 1172 633 m 551 1175 l 546 1179 l 542 1175 l 551 1175 m 1103 554 q 1079 711 1103 635 q 1013 853 1056 788 q 910 972 971 919 q 776 1058 850 1025 l 815 1097 l 669 1243 l 621 1194 l 744 1071 q 551 1106 653 1106 q 339 1064 440 1106 l 471 1194 l 422 1243 l 275 1097 l 319 1054 q 188 967 247 1019 q 88 850 129 915 q 23 710 46 785 q 0 554 0 635 q 44 340 0 440 q 163 165 88 240 q 338 47 238 90 q 551 3 438 3 q 766 47 665 3 q 942 167 867 92 q 1060 342 1017 242 q 1103 554 1103 442 m 1035 554 q 889 210 1035 351 q 893 246 893 226 q 846 375 893 311 q 896 554 896 456 l 828 554 q 806 447 828 497 q 746 360 783 397 q 658 300 708 322 q 551 278 607 278 q 444 299 494 278 q 356 358 393 321 q 297 447 318 396 q 275 554 275 497 l 207 554 q 234 420 207 483 q 308 310 261 357 q 417 237 354 264 q 551 210 481 210 q 587 212 569 210 q 621 217 604 214 l 621 215 q 701 156 661 174 q 786 138 742 138 l 796 138 q 551 71 681 71 q 364 109 451 71 q 211 213 276 147 q 108 367 146 279 q 69 554 69 454 q 108 742 69 654 q 212 895 146 829 q 365 999 278 961 q 551 1036 453 1036 q 738 998 650 1036 q 891 894 825 960 q 996 742 957 829 q 1035 554 1035 654 m 825 243 q 788 207 825 207 q 697 242 746 207 q 801 317 756 268 q 825 243 825 274 m 896 696 q 882 762 896 731 q 844 817 868 793 q 790 854 821 840 q 724 868 758 868 q 658 855 689 868 q 603 818 626 842 q 565 763 579 794 q 551 696 551 732 q 538 762 551 731 q 500 817 524 793 q 445 854 476 840 q 379 868 414 868 q 313 855 344 868 q 258 818 282 842 q 221 763 235 794 q 207 696 207 732 q 221 628 207 660 q 258 574 235 597 q 312 538 281 551 q 379 524 343 524 q 447 538 415 524 q 501 575 478 551 q 538 630 525 599 q 551 696 551 661 q 565 628 551 660 q 602 574 579 597 q 656 538 625 551 q 724 524 688 524 q 792 538 760 524 q 847 575 824 551 q 883 630 869 599 q 896 696 896 661 m 810 696 q 785 635 810 660 q 724 610 760 610 q 663 635 689 610 q 638 696 638 660 q 663 757 638 732 q 724 782 689 782 q 785 757 760 782 q 810 696 810 732 m 465 696 q 440 635 465 660 q 379 610 415 610 q 318 635 343 610 q 293 696 293 660 q 318 757 293 732 q 379 782 343 782 q 440 757 415 782 q 465 696 465 732 z "},"x":{"ha":1344,"x_min":-71,"x_max":1185,"o":"m 1185 551 q 1135 309 1185 424 q 1001 109 1086 194 q 801 -26 915 24 q 557 -76 686 -76 q 313 -27 428 -76 q 113 108 199 22 q -22 308 28 193 q -71 551 -71 422 q 63 938 -71 768 q -71 1110 -71 1013 q -22 1217 -71 1167 q 113 1306 28 1268 q 312 1367 197 1344 q 557 1389 426 1389 q 786 1369 674 1389 q 987 1312 899 1349 q 1130 1224 1075 1275 q 1185 1110 1185 1172 q 1051 938 1185 1013 q 1185 551 1185 768 m 1115 551 q 940 957 1115 792 q 1115 1110 1115 1017 q 1072 1190 1115 1151 q 953 1256 1028 1228 q 776 1302 878 1285 q 557 1319 674 1319 q 357 1304 457 1319 q 178 1261 257 1289 q 49 1195 99 1233 q -1 1110 -1 1157 q 174 957 -1 1017 q -1 551 -1 792 q 43 335 -1 436 q 163 158 88 233 q 340 38 239 82 q 557 -7 442 -7 q 773 38 671 -7 q 951 158 875 82 q 1071 335 1026 233 q 1115 551 1115 436 m 1044 1110 q 882 1006 1044 1047 q 557 1110 736 1110 q 232 1006 378 1110 q 68 1110 68 1047 q 109 1165 68 1139 q 218 1209 150 1190 q 374 1238 286 1228 q 557 1249 463 1249 q 738 1238 650 1249 q 894 1209 826 1228 q 1003 1165 963 1190 q 1044 1110 1044 1140 m 781 986 q 557 969 674 969 q 333 986 439 969 q 557 1040 439 1040 q 781 986 674 1040 m 1044 551 q 1006 363 1044 451 q 901 207 967 274 q 746 101 835 140 q 557 63 657 63 q 368 101 457 63 q 213 207 279 140 q 107 363 146 274 q 68 551 68 451 q 253 933 68 788 q 557 900 392 900 q 860 933 722 900 q 1044 551 1044 788 m 836 656 q 806 730 836 699 q 731 761 775 761 q 657 730 688 761 q 626 656 626 699 q 657 582 626 613 q 731 551 688 551 q 806 582 775 551 q 836 656 836 613 m 488 656 q 456 730 488 699 q 382 761 425 761 q 308 730 339 761 q 278 656 278 699 q 308 582 278 613 q 382 551 339 551 q 456 582 425 551 q 488 656 488 613 m 906 551 l 836 551 q 814 444 836 494 q 753 355 792 393 q 665 294 715 317 q 557 272 614 272 q 449 294 500 272 q 360 355 399 317 q 300 444 322 393 q 278 551 278 494 l 208 551 q 235 415 208 479 q 310 304 263 351 q 421 230 357 257 q 557 203 485 203 q 692 231 628 203 q 803 306 756 258 q 878 416 850 353 q 906 551 906 479 z "},"y":{"ha":1328,"x_min":-69,"x_max":1172,"o":"m 1172 549 q 1123 308 1172 421 q 990 110 1074 194 q 792 -23 906 26 q 551 -72 679 -72 q 310 -23 424 -72 q 113 110 197 26 q -20 308 29 194 q -69 549 -69 421 q 68 939 -69 768 l 68 1376 l 379 1146 q 551 1169 467 1169 q 724 1146 636 1169 l 1035 1376 l 1035 939 q 1172 549 1172 768 m 1099 553 q 954 925 1099 765 l 972 1242 l 724 1075 q 547 1104 638 1104 q 361 1072 453 1104 l 133 1242 l 133 917 q -4 553 -4 760 q 39 338 -4 439 q 157 163 82 238 q 332 44 232 88 q 547 0 432 0 q 762 44 661 0 q 938 163 863 88 q 1056 338 1013 238 q 1099 553 1099 439 m 1031 553 q 992 365 1031 453 q 888 212 954 278 q 734 108 822 146 q 547 69 646 69 q 360 108 447 69 q 206 212 272 146 q 102 365 140 278 q 64 553 64 453 q 103 740 64 653 q 208 893 142 828 q 361 997 274 958 q 547 1035 449 1035 q 733 997 646 1035 q 887 893 821 958 q 992 740 953 828 q 1031 553 1031 653 m 824 656 q 798 724 824 694 q 733 758 772 753 l 824 849 l 775 897 l 628 751 l 649 731 q 617 656 617 699 q 647 583 617 613 q 719 553 676 553 q 793 583 763 553 q 824 656 824 613 m 478 656 q 451 725 478 697 l 478 751 l 332 897 l 283 849 l 372 760 q 301 728 331 758 q 271 656 271 697 q 301 583 271 613 q 375 553 332 553 q 448 583 418 553 q 478 656 478 613 m 892 553 l 824 553 q 801 446 824 496 q 742 358 779 396 q 653 299 704 321 q 547 276 603 276 q 440 298 490 276 q 351 357 389 319 q 292 445 314 394 q 271 553 271 496 l 203 553 q 230 419 203 482 q 304 308 257 356 q 414 234 351 261 q 547 207 476 207 q 681 235 618 207 q 791 310 744 263 q 865 419 838 357 q 892 553 892 482 z "},"z":{"ha":1336,"x_min":-69,"x_max":1185,"o":"m 1185 553 q 1135 312 1185 425 q 1001 113 1086 199 q 801 -24 915 26 q 558 -74 688 -74 q 315 -24 429 -74 q 115 110 200 25 q -20 310 29 196 q -69 553 -69 424 q -19 797 -69 682 q 116 997 31 911 q 316 1131 201 1082 q 558 1181 431 1181 q 800 1131 686 1181 q 999 995 914 1081 q 1135 796 1085 910 q 1185 553 1185 682 m 1111 557 q 1067 772 1111 671 q 947 949 1022 874 q 769 1069 871 1025 q 554 1114 668 1114 q 339 1070 440 1114 q 162 951 238 1026 q 42 774 86 875 q -3 557 -3 672 q 41 341 -3 442 q 161 164 85 240 q 338 44 238 88 q 554 0 439 0 q 771 44 669 0 q 948 165 872 89 q 1067 342 1024 240 q 1111 557 1111 443 m 1042 557 q 1003 368 1042 457 q 898 213 964 279 q 743 108 832 147 q 554 69 654 69 q 365 108 454 69 q 210 213 276 146 q 106 368 144 279 q 67 557 67 457 q 106 746 67 657 q 210 901 144 835 q 365 1006 276 968 q 554 1044 454 1044 q 743 1006 654 1044 q 898 901 832 967 q 1003 746 964 835 q 1042 557 1042 657 m 832 685 q 810 749 832 721 q 751 786 788 778 l 832 867 l 783 917 l 635 769 l 650 754 q 624 685 624 726 q 654 611 624 642 q 728 581 685 581 q 801 611 771 581 q 832 685 832 642 m 485 685 q 468 742 485 714 l 485 757 l 336 906 l 288 856 l 357 786 q 298 750 321 779 q 275 685 275 721 q 306 611 275 642 q 379 581 336 581 q 453 611 422 581 q 485 685 485 642 m 901 488 l 206 488 q 233 351 206 415 q 307 240 260 288 q 418 166 354 193 q 554 139 482 139 q 688 167 625 139 q 799 242 751 194 q 874 353 846 289 q 901 488 901 417 m 824 418 q 787 335 813 374 q 725 268 761 296 q 645 224 689 240 q 554 208 601 208 q 462 224 506 208 q 383 268 418 240 q 322 334 347 296 q 285 418 296 372 l 344 418 l 414 279 l 485 418 l 624 418 l 693 279 l 763 418 l 824 418 z "},"{":{"ha":1328,"x_min":-64,"x_max":1176,"o":"m 1176 553 q 1127 313 1176 425 q 994 116 1078 200 q 797 -17 910 32 q 557 -67 683 -67 q 317 -17 429 -67 q 119 116 204 32 q -15 313 35 200 q -64 553 -64 425 q -15 794 -64 681 q 119 991 35 907 q 316 1124 203 1075 q 557 1174 429 1174 q 797 1124 683 1174 q 994 990 910 1075 q 1127 792 1078 906 q 1176 553 1176 679 m 1104 557 q 1060 770 1104 669 q 942 946 1017 871 q 766 1065 867 1021 q 553 1108 665 1108 q 340 1065 440 1108 q 165 947 240 1022 q 45 772 89 872 q 1 557 1 671 q 45 343 1 443 q 164 168 89 243 q 339 49 239 93 q 553 6 439 6 q 767 50 667 6 q 943 169 868 94 q 1061 344 1018 244 q 1104 557 1104 444 m 1035 557 q 997 371 1035 458 q 893 218 958 283 q 740 114 828 153 q 553 75 653 75 q 365 113 453 75 q 213 217 278 151 q 109 369 147 282 q 71 557 71 457 q 109 744 71 657 q 213 898 147 832 q 367 1001 279 964 q 553 1039 454 1039 q 739 1001 651 1039 q 892 897 826 963 q 997 743 958 831 q 1035 557 1035 656 m 828 661 q 802 729 828 700 q 739 763 776 758 l 828 853 l 779 901 l 633 756 l 654 735 q 622 661 622 703 q 652 588 622 618 q 725 557 682 557 q 798 588 768 557 q 828 661 828 618 m 483 661 q 457 729 483 701 l 483 756 l 338 901 l 289 853 l 378 764 q 307 733 336 763 q 278 661 278 703 q 308 588 278 618 q 381 557 338 557 q 453 588 424 557 q 483 661 483 618 m 897 419 l 897 489 l 208 489 l 208 419 l 278 419 l 346 282 l 415 419 l 690 419 l 760 282 l 828 419 l 897 419 z "},"|":{"ha":1328,"x_min":-64,"x_max":1176,"o":"m 1176 556 q 1127 315 1176 428 q 994 117 1078 201 q 797 -16 910 33 q 556 -65 683 -65 q 315 -16 428 -65 q 119 118 203 33 q -15 315 35 203 q -64 556 -64 428 q -15 795 -64 682 q 119 992 35 908 q 315 1126 203 1076 q 556 1175 428 1175 q 795 1126 682 1175 q 993 992 908 1076 q 1127 795 1078 908 q 1176 556 1176 682 m 1107 563 q 1063 776 1107 676 q 944 951 1019 876 q 769 1070 869 1026 q 556 1114 669 1114 q 343 1070 443 1114 q 168 951 243 1026 q 49 776 93 876 q 6 563 6 676 q 49 350 6 450 q 168 175 93 250 q 343 56 243 100 q 556 13 443 13 q 769 56 669 13 q 944 175 869 100 q 1063 350 1019 250 q 1107 563 1107 450 m 1039 563 q 1001 376 1039 464 q 897 223 963 289 q 743 119 831 157 q 556 81 656 81 q 369 119 457 81 q 216 223 282 157 q 112 376 150 289 q 74 563 74 464 q 112 750 74 663 q 216 903 150 838 q 369 1008 282 969 q 556 1046 457 1046 q 742 1008 654 1046 q 897 903 831 969 q 1001 749 963 838 q 1039 563 1039 661 m 832 667 q 801 739 832 708 q 728 769 771 769 q 656 739 686 769 q 625 667 625 708 q 656 593 625 624 q 728 563 686 563 q 801 593 771 563 q 832 667 832 624 m 488 667 q 457 739 488 708 q 383 769 426 769 q 311 739 342 769 q 281 667 281 708 q 311 593 281 624 q 383 563 342 563 q 457 593 426 563 q 488 667 488 624 m 832 357 l 832 425 l 281 425 l 281 357 l 832 357 z "},"}":{"ha":1332,"x_min":-72,"x_max":1176,"o":"m 1176 553 q 1127 312 1176 425 q 993 113 1078 199 q 794 -22 908 28 q 553 -72 681 -72 q 310 -23 424 -72 q 112 112 197 26 q -23 310 26 197 q -72 553 -72 424 q 67 946 -72 774 l 67 1386 l 379 1153 q 553 1178 464 1178 q 725 1153 639 1178 l 1038 1386 l 1038 946 q 1176 553 1176 774 m 1111 553 q 967 928 1111 767 l 983 1246 l 733 1079 q 556 1108 647 1108 q 368 1075 457 1108 l 140 1247 l 140 919 q 1 553 1 764 q 45 337 1 438 q 165 160 89 236 q 341 41 240 85 q 556 -3 442 -3 q 771 41 669 -3 q 948 160 872 85 q 1067 337 1024 236 q 1111 553 1111 438 m 1042 553 q 1003 366 1042 454 q 899 211 965 278 q 745 106 833 144 q 556 67 657 67 q 367 105 456 67 q 213 209 279 143 q 109 364 147 275 q 71 553 71 453 q 110 742 71 654 q 215 897 149 831 q 369 1001 281 963 q 556 1039 457 1039 q 744 1000 656 1039 q 898 895 832 961 q 1003 741 964 829 q 1042 553 1042 653 m 833 668 q 811 734 833 706 q 753 769 789 763 l 833 850 l 785 900 l 638 753 l 651 738 q 625 668 625 710 q 656 596 625 626 q 729 565 686 565 q 803 596 772 565 q 833 668 833 626 m 486 668 q 471 725 486 697 l 486 742 l 339 889 l 290 839 l 360 771 q 301 734 324 763 q 278 668 278 706 q 309 596 278 626 q 382 565 340 565 q 456 596 425 565 q 486 668 486 626 m 903 472 l 208 472 q 235 337 208 400 q 310 226 263 274 q 420 152 357 179 q 556 125 483 125 q 690 152 626 125 q 800 226 753 179 q 875 337 847 274 q 903 472 903 400 m 825 403 q 788 319 814 357 q 726 253 761 281 q 647 210 690 225 q 556 194 603 194 q 465 210 508 194 q 386 253 422 225 q 324 319 350 281 q 288 403 299 357 l 347 403 l 417 264 l 486 403 l 625 403 l 694 264 l 764 403 l 825 403 z "},"~":{"ha":664,"x_min":0,"x_max":0,"o":""},"":{"ha":664,"x_min":0,"x_max":0,"o":""},"":{"ha":664,"x_min":0,"x_max":0,"o":""},"":{"ha":664,"x_min":0,"x_max":0,"o":""},"":{"ha":664,"x_min":0,"x_max":0,"o":""},"":{"ha":664,"x_min":0,"x_max":0,"o":""},"":{"ha":664,"x_min":0,"x_max":0,"o":""},"":{"ha":664,"x_min":0,"x_max":0,"o":""},"":{"ha":664,"x_min":0,"x_max":0,"o":""},"":{"ha":664,"x_min":0,"x_max":0,"o":""},"":{"ha":664,"x_min":0,"x_max":0,"o":""},"":{"ha":664,"x_min":0,"x_max":0,"o":""},"":{"ha":664,"x_min":0,"x_max":0,"o":""},"":{"ha":664,"x_min":0,"x_max":0,"o":""},"":{"ha":664,"x_min":0,"x_max":0,"o":""},"":{"ha":664,"x_min":0,"x_max":0,"o":""},"":{"ha":664,"x_min":0,"x_max":0,"o":""},"":{"ha":664,"x_min":0,"x_max":0,"o":""},"":{"ha":664,"x_min":0,"x_max":0,"o":""},"":{"ha":664,"x_min":0,"x_max":0,"o":""},"":{"ha":664,"x_min":0,"x_max":0,"o":""},"":{"ha":664,"x_min":0,"x_max":0,"o":""},"":{"ha":1328,"x_min":-64,"x_max":1175,"o":"m 1175 556 q 1126 315 1175 428 q 992 118 1076 203 q 795 -16 908 33 q 556 -65 682 -65 q 315 -16 428 -65 q 117 117 201 33 q -15 315 33 201 q -64 556 -64 428 q -15 795 -64 682 q 118 992 33 908 q 315 1126 203 1076 q 556 1175 428 1175 q 795 1126 682 1175 q 992 992 908 1076 q 1126 795 1076 908 q 1175 556 1175 682 m 1103 560 q 1059 772 1103 672 q 940 947 1015 872 q 765 1066 865 1022 q 551 1110 665 1110 q 338 1067 439 1110 q 163 949 238 1024 q 44 774 88 874 q 0 560 0 674 q 44 344 0 444 q 163 169 88 244 q 339 51 239 94 q 551 8 439 8 q 765 51 665 8 q 940 169 865 94 q 1059 344 1015 244 q 1103 560 1103 444 m 896 560 q 869 426 896 489 q 795 317 842 364 q 686 243 749 271 q 551 215 624 215 q 418 242 481 215 q 308 317 356 269 q 234 426 261 364 q 207 560 207 489 q 235 693 207 631 q 309 802 263 756 q 418 876 356 849 q 551 904 481 904 q 685 876 622 904 q 795 801 749 849 q 869 692 842 754 q 896 560 896 629 m 689 560 q 649 658 689 618 q 551 697 610 697 q 453 658 493 697 q 414 560 414 618 q 453 461 414 501 q 551 421 493 421 q 649 461 610 421 q 689 560 689 501 z "},"":{"ha":1335,"x_min":-69,"x_max":1183,"o":"m 1183 558 q 1134 315 1183 429 q 999 116 1085 201 q 800 -19 914 31 q 557 -68 686 -68 q 314 -19 428 -68 q 115 116 200 31 q -20 315 29 201 q -69 558 -69 429 q -20 801 -69 688 q 115 1001 29 915 q 314 1135 200 1086 q 557 1185 428 1185 q 800 1135 686 1185 q 999 1001 914 1086 q 1134 801 1085 915 q 1183 558 1183 688 m 1114 558 q 1069 774 1114 672 q 949 951 1025 875 q 772 1071 874 1026 q 557 1115 671 1115 q 342 1072 443 1115 q 165 952 240 1028 q 44 775 89 876 q 0 558 0 674 q 44 342 0 443 q 164 165 88 242 q 341 45 240 89 q 557 1 442 1 q 774 46 672 1 q 951 166 875 90 q 1070 343 1026 242 q 1114 558 1114 444 m 904 558 q 881 431 904 494 l 429 882 q 557 907 489 907 q 691 879 628 907 q 801 803 754 851 q 876 692 849 756 q 904 558 904 629 m 683 235 q 557 210 622 210 q 421 237 485 210 q 310 311 357 264 q 235 422 263 358 q 208 558 208 486 q 232 686 208 622 l 683 235 z "}}}
